{
	"asset": {
		"generator": "Unity 2020.3.11f1",
		"extras": {
			"exporterVersion" : "2.2.1"
		},
		"version": "2.0"
	},
	"accessors": [
		{
			"bufferView": 2,
			"byteOffset": 0,
			"componentType": 5126,
			"count": 520,
			"max": [ 37.6286, 42.93332, -2.233562 ],
			"min": [ 1.682825, 35.74968, -40.33896 ],
			"type": "VEC3"
		},
		{
			"bufferView": 2,
			"byteOffset": 6240,
			"componentType": 5126,
			"count": 520,
			"max": [ 0.9961948, 1, 0.9171065 ],
			"min": [ -0.9961948, -1, -0.9141249 ],
			"type": "VEC3"
		},
		{
			"bufferView": 1,
			"byteOffset": 0,
			"componentType": 5126,
			"count": 520,
			"max": [ 0.65625, 0.9790665 ],
			"min": [ 0, 0 ],
			"type": "VEC2"
		},
		{
			"bufferView": 3,
			"byteOffset": 0,
			"componentType": 5126,
			"count": 520,
			"max": [ 1, 0, 0.9961948, 1 ],
			"min": [ -0.9063082, 0, -0.9961948, 1 ],
			"type": "VEC4"
		},
		{
			"bufferView": 0,
			"byteOffset": 0,
			"componentType": 5123,
			"count": 930,
			"max": [ 519 ],
			"min": [ 0 ],
			"type": "SCALAR"
		}
	],
	"buffers": [
		{
			"byteLength": 26820,
			"uri": "entity62374.bin"
		}
	],
	"bufferViews": [
		{
			"buffer": 0,
			"byteLength": 1860,
			"target": 34963,
			"byteOffset": 24960
		},
		{
			"buffer": 0,
			"byteLength": 4160,
			"target": 34962,
			"byteStride": 8,
			"byteOffset": 0
		},
		{
			"buffer": 0,
			"byteLength": 12480,
			"target": 34962,
			"byteStride": 12,
			"byteOffset": 4160
		},
		{
			"buffer": 0,
			"byteLength": 8320,
			"target": 34962,
			"byteStride": 16,
			"byteOffset": 16640
		}
	],
	"materials": [
		{
			"pbrMetallicRoughness": {
				"baseColorFactor": [1, 0.004716992, 0.004716992, 1],
				"metallicFactor": 0,
				"roughnessFactor": 0.5
			},
			"emissiveFactor": [0, 0, 0],
			"doubleSided": false,
			"name": "Collider_Mat"
		}
	],
	"meshes": [
		{
			"name": "mesh_Hexagon_Floor03_collider_34326Hexagon_Floor03_collider",
			"primitives": [
				{
					"attributes": {
						"POSITION": 0,
						"NORMAL": 1,
						"TEXCOORD_0": 2,
						"TANGENT": 3
					},
					"indices": 4,
					"material": 0,
					"mode": 4
				}
			]
		}
	],
	"nodes": [
		{
			"name": "UnityGlTF_root",
			"children": [
				1
			]
		},
		{
			"name": "node_Hexagon_Floor03_collider",
			"mesh": 0,
			"matrix": [1, 0, 0, 0, 0, 1, 0, 0, 0, 0, 1, 0, 0, 0, 0, 1]
		}
	],
	"scenes": [
		{
			"name":"defaultScene",
			"nodes": [
				0
			]
		}
	],
	"scene": 0
}