{
	"asset": {
		"generator": "Unity 2020.3.11f1",
		"extras": {
			"exporterVersion" : "2.2.1"
		},
		"version": "2.0"
	},
	"accessors": [
		{
			"bufferView": 2,
			"byteOffset": 0,
			"componentType": 5126,
			"count": 1730,
			"max": [ 39.17731, 59.8325, -0.929133 ],
			"min": [ 0.8740063, 23.86804, -41.28307 ],
			"type": "VEC3"
		},
		{
			"bufferView": 2,
			"byteOffset": 20760,
			"componentType": 5126,
			"count": 1730,
			"max": [ 1, 1, 1 ],
			"min": [ -1, -0.02562339, -0.9999944 ],
			"type": "VEC3"
		},
		{
			"bufferView": 1,
			"byteOffset": 0,
			"componentType": 5126,
			"count": 1730,
			"max": [ 1.179843, 0.9925987 ],
			"min": [ -0.1188111, 0.007553776 ],
			"type": "VEC2"
		},
		{
			"bufferView": 3,
			"byteOffset": 0,
			"componentType": 5126,
			"count": 1730,
			"max": [ 1, 0.4842957, 1, 1 ],
			"min": [ -1, -0.3163147, -1, -1 ],
			"type": "VEC4"
		},
		{
			"bufferView": 0,
			"byteOffset": 0,
			"componentType": 5123,
			"count": 7353,
			"max": [ 1729 ],
			"min": [ 0 ],
			"type": "SCALAR"
		}
	],
	"buffers": [
		{
			"byteLength": 97746,
			"uri": "entity58694.bin"
		}
	],
	"bufferViews": [
		{
			"buffer": 0,
			"byteLength": 14706,
			"target": 34963,
			"byteOffset": 83040
		},
		{
			"buffer": 0,
			"byteLength": 13840,
			"target": 34962,
			"byteStride": 8,
			"byteOffset": 0
		},
		{
			"buffer": 0,
			"byteLength": 41520,
			"target": 34962,
			"byteStride": 12,
			"byteOffset": 13840
		},
		{
			"buffer": 0,
			"byteLength": 27680,
			"target": 34962,
			"byteStride": 16,
			"byteOffset": 55360
		}
	],
	"images": [
		{
			"uri": "Assets/Visuals/Materials/Textures/Domes01_Albedo.png"
		},
		{
			"uri": "Assets/Visuals/Materials/Textures/Sphere01_Emissive.jpg"
		}
	],
	"materials": [
		{
			"pbrMetallicRoughness": {
				"baseColorTexture" : {
					"index" : 0,
					"texCoord" : 0
				},
				"baseColorFactor": [1, 1, 1, 1],
				"metallicFactor": 0,
				"roughnessFactor": 1
			},
			"alphaMode": "BLEND",
			"alphaCutoff": 0.5,
			"emissiveTexture" : {
				"index" : 1,
				"texCoord" : 0
			},
			"emissiveFactor": [2.639016, 2.639016, 2.639016],
			"doubleSided": true,
			"name": "Domes_Mat"
		}
	],
	"meshes": [
		{
			"name": "mesh_Dome03_Base_33690Dome03_Base",
			"primitives": [
				{
					"attributes": {
						"POSITION": 0,
						"NORMAL": 1,
						"TEXCOORD_0": 2,
						"TANGENT": 3
					},
					"indices": 4,
					"material": 0,
					"mode": 4
				}
			]
		}
	],
	"nodes": [
		{
			"name": "UnityGlTF_root",
			"children": [
				1
			]
		},
		{
			"name": "node_Dome03_Base",
			"mesh": 0,
			"matrix": [1, 0, 0, 0, 0, 1, 0, 0, 0, 0, 1, 0, 0, 0, 0, 1]
		}
	],
	"samplers": [
		{
			"magFilter": 9729,
			"minFilter": 9985,
			"wrapS": 10497,
			"wrapT": 10497
		}
	],
	"scenes": [
		{
			"name":"defaultScene",
			"nodes": [
				0
			]
		}
	],
	"scene": 0,
	"textures": [
		{
			"sampler": 0,
			"source": 0
		},
		{
			"sampler": 0,
			"source": 1
		}
	]
}