{
	"asset": {
		"generator": "Unity 2020.3.11f1",
		"extras": {
			"exporterVersion" : "2.2.1"
		},
		"version": "2.0"
	},
	"accessors": [
		{
			"bufferView": 2,
			"byteOffset": 0,
			"componentType": 5126,
			"count": 390,
			"max": [ 0.2302951, 2.639054, -0.1516419 ],
			"min": [ -0.2302951, 2.06919, -0.2130872 ],
			"type": "VEC3"
		},
		{
			"bufferView": 2,
			"byteOffset": 4680,
			"componentType": 5126,
			"count": 390,
			"max": [ 1, 1, 1 ],
			"min": [ -1, -1, -1 ],
			"type": "VEC3"
		},
		{
			"bufferView": 1,
			"byteOffset": 0,
			"componentType": 5126,
			"count": 390,
			"max": [ 0.3953, 0.6572832 ],
			"min": [ 0.3953, 0.6572832 ],
			"type": "VEC2"
		},
		{
			"bufferView": 3,
			"byteOffset": 0,
			"componentType": 5126,
			"count": 390,
			"max": [ 1, 0, 0, 1 ],
			"min": [ 1, 0, 0, 1 ],
			"type": "VEC4"
		},
		{
			"bufferView": 0,
			"byteOffset": 0,
			"componentType": 5123,
			"count": 1020,
			"max": [ 389 ],
			"min": [ 0 ],
			"type": "SCALAR"
		}
	],
	"buffers": [
		{
			"byteLength": 20760,
			"uri": "entity36132.bin"
		}
	],
	"bufferViews": [
		{
			"buffer": 0,
			"byteLength": 2040,
			"target": 34963,
			"byteOffset": 18720
		},
		{
			"buffer": 0,
			"byteLength": 3120,
			"target": 34962,
			"byteStride": 8,
			"byteOffset": 0
		},
		{
			"buffer": 0,
			"byteLength": 9360,
			"target": 34962,
			"byteStride": 12,
			"byteOffset": 3120
		},
		{
			"buffer": 0,
			"byteLength": 6240,
			"target": 34962,
			"byteStride": 16,
			"byteOffset": 12480
		}
	],
	"images": [
		{
			"uri": "Assets/Visuals/Materials/Textures/Teleport_Albedo.png"
		},
		{
			"uri": "Assets/Visuals/Materials/Textures/Teleport_Emissive.jpg"
		}
	],
	"materials": [
		{
			"pbrMetallicRoughness": {
				"baseColorTexture" : {
					"index" : 0,
					"texCoord" : 0
				},
				"baseColorFactor": [1, 1, 1, 1],
				"metallicFactor": 0,
				"roughnessFactor": 1
			},
			"emissiveTexture" : {
				"index" : 1,
				"texCoord" : 0
			},
			"emissiveFactor": [1, 1, 1],
			"doubleSided": false,
			"name": "Teleporter_Mat"
		}
	],
	"meshes": [
		{
			"name": "mesh_Info02_23220Info02",
			"primitives": [
				{
					"attributes": {
						"POSITION": 0,
						"NORMAL": 1,
						"TEXCOORD_0": 2,
						"TANGENT": 3
					},
					"indices": 4,
					"material": 0,
					"mode": 4
				}
			]
		}
	],
	"nodes": [
		{
			"name": "UnityGlTF_root",
			"children": [
				1
			]
		},
		{
			"name": "node_Info02",
			"mesh": 0,
			"matrix": [1, 0, 0, 0, 0, 1, 0, 0, 0, 0, 1, 0, 0, 0, 0, 1]
		}
	],
	"samplers": [
		{
			"magFilter": 9729,
			"minFilter": 9985,
			"wrapS": 10497,
			"wrapT": 10497
		}
	],
	"scenes": [
		{
			"name":"defaultScene",
			"nodes": [
				0
			]
		}
	],
	"scene": 0,
	"textures": [
		{
			"sampler": 0,
			"source": 0
		},
		{
			"sampler": 0,
			"source": 1
		}
	]
}