{
	"asset": {
		"generator": "Unity 2020.3.11f1",
		"extras": {
			"exporterVersion" : "2.2.1"
		},
		"version": "2.0"
	},
	"accessors": [
		{
			"bufferView": 2,
			"byteOffset": 0,
			"componentType": 5126,
			"count": 975,
			"max": [ 19.74336, 76.56511, 32.70452 ],
			"min": [ -26.90082, -0.1063029, -18.53117 ],
			"type": "VEC3"
		},
		{
			"bufferView": 2,
			"byteOffset": 11700,
			"componentType": 5126,
			"count": 975,
			"max": [ 0.9963257, 0.9978423, 0.9957188 ],
			"min": [ -0.9967133, -0.9953293, -0.995736 ],
			"type": "VEC3"
		},
		{
			"bufferView": 1,
			"byteOffset": 0,
			"componentType": 5126,
			"count": 975,
			"max": [ 1, 1 ],
			"min": [ 0, 0 ],
			"type": "VEC2"
		},
		{
			"bufferView": 3,
			"byteOffset": 0,
			"componentType": 5126,
			"count": 975,
			"max": [ 0.9838325, 0.9624239, 0.9894484, -1 ],
			"min": [ -0.9999206, -0.8739752, -0.9916248, -1 ],
			"type": "VEC4"
		},
		{
			"bufferView": 0,
			"byteOffset": 0,
			"componentType": 5123,
			"count": 4632,
			"max": [ 974 ],
			"min": [ 0 ],
			"type": "SCALAR"
		}
	],
	"buffers": [
		{
			"byteLength": 56064,
			"uri": "entity35044.bin"
		}
	],
	"bufferViews": [
		{
			"buffer": 0,
			"byteLength": 9264,
			"target": 34963,
			"byteOffset": 46800
		},
		{
			"buffer": 0,
			"byteLength": 7800,
			"target": 34962,
			"byteStride": 8,
			"byteOffset": 0
		},
		{
			"buffer": 0,
			"byteLength": 23400,
			"target": 34962,
			"byteStride": 12,
			"byteOffset": 7800
		},
		{
			"buffer": 0,
			"byteLength": 15600,
			"target": 34962,
			"byteStride": 16,
			"byteOffset": 31200
		}
	],
	"materials": [
		{
			"pbrMetallicRoughness": {
				"baseColorFactor": [1, 1, 1, 1],
				"metallicFactor": 0,
				"roughnessFactor": 0.5
			},
			"emissiveFactor": [1, 0.4292453, 0.7913262],
			"doubleSided": false,
			"name": "BioLights_Mat"
		}
	],
	"meshes": [
		{
			"name": "mesh_Tree_BioLights_22206Tree_BioLights_Art",
			"primitives": [
				{
					"attributes": {
						"POSITION": 0,
						"NORMAL": 1,
						"TEXCOORD_0": 2,
						"TANGENT": 3
					},
					"indices": 4,
					"material": 0,
					"mode": 4
				}
			]
		}
	],
	"nodes": [
		{
			"name": "UnityGlTF_root",
			"children": [
				1
			]
		},
		{
			"name": "node_Tree_BioLights_Art",
			"mesh": 0,
			"matrix": [1, 0, 0, 0, 0, 1, 0, 0, 0, 0, 1, 0, 0, 0, 0, 1]
		}
	],
	"scenes": [
		{
			"name":"defaultScene",
			"nodes": [
				0
			]
		}
	],
	"scene": 0
}