{
	"asset": {
		"generator": "Unity 2020.3.11f1",
		"extras": {
			"exporterVersion" : "2.2.1"
		},
		"version": "2.0"
	},
	"accessors": [
		{
			"bufferView": 2,
			"byteOffset": 0,
			"componentType": 5126,
			"count": 574,
			"max": [ 1.03265, 1.032651, 1.032649 ],
			"min": [ -1.03265, -1.032651, -1.03265 ],
			"type": "VEC3"
		},
		{
			"bufferView": 2,
			"byteOffset": 6888,
			"componentType": 5126,
			"count": 574,
			"max": [ 1, 1, 1 ],
			"min": [ -1, -1, -1 ],
			"type": "VEC3"
		},
		{
			"bufferView": 1,
			"byteOffset": 0,
			"componentType": 5126,
			"count": 574,
			"max": [ 1, 0.9998779 ],
			"min": [ 0, 0.0001537989 ],
			"type": "VEC2"
		},
		{
			"bufferView": 3,
			"byteOffset": 0,
			"componentType": 5126,
			"count": 574,
			"max": [ 1, 0.09848516, 1, 1 ],
			"min": [ -1, -0.09848507, -1, -1 ],
			"type": "VEC4"
		},
		{
			"bufferView": 0,
			"byteOffset": 0,
			"componentType": 5123,
			"count": 1440,
			"max": [ 286 ],
			"min": [ 0 ],
			"type": "SCALAR"
		},
		{
			"bufferView": 0,
			"byteOffset": 2880,
			"componentType": 5123,
			"count": 1440,
			"max": [ 573 ],
			"min": [ 287 ],
			"type": "SCALAR"
		}
	],
	"buffers": [
		{
			"byteLength": 33312,
			"uri": "entity58344.bin"
		}
	],
	"bufferViews": [
		{
			"buffer": 0,
			"byteLength": 5760,
			"target": 34963,
			"byteOffset": 27552
		},
		{
			"buffer": 0,
			"byteLength": 4592,
			"target": 34962,
			"byteStride": 8,
			"byteOffset": 0
		},
		{
			"buffer": 0,
			"byteLength": 13776,
			"target": 34962,
			"byteStride": 12,
			"byteOffset": 4592
		},
		{
			"buffer": 0,
			"byteLength": 9184,
			"target": 34962,
			"byteStride": 16,
			"byteOffset": 18368
		}
	],
	"images": [
		{
			"uri": "Assets/Visuals/Materials/Textures/Sphere01_Albedo.png"
		},
		{
			"uri": "Assets/Visuals/Materials/Textures/Sphere03_Emissive.jpg"
		}
	],
	"materials": [
		{
			"pbrMetallicRoughness": {
				"baseColorTexture" : {
					"index" : 0,
					"texCoord" : 0
				},
				"baseColorFactor": [1, 1, 1, 0.5333334],
				"metallicFactor": 0,
				"roughnessFactor": 1
			},
			"alphaMode": "BLEND",
			"alphaCutoff": 0.5,
			"emissiveTexture" : {
				"index" : 1,
				"texCoord" : 0
			},
			"emissiveFactor": [4, 4, 4],
			"doubleSided": false,
			"name": "Sphere03_Mat"
		},
		{
			"pbrMetallicRoughness": {
				"baseColorFactor": [0, 0, 0, 0.4823529],
				"metallicFactor": 0,
				"roughnessFactor": 1
			},
			"alphaMode": "BLEND",
			"alphaCutoff": 0.38,
			"emissiveFactor": [0, 0, 0],
			"doubleSided": false,
			"name": "Outline_Mat"
		}
	],
	"meshes": [
		{
			"name": "mesh_Sphere_32820Sphere01_Art (37)",
			"primitives": [
				{
					"attributes": {
						"POSITION": 0,
						"NORMAL": 1,
						"TEXCOORD_0": 2,
						"TANGENT": 3
					},
					"indices": 4,
					"material": 0,
					"mode": 4
				},
				{
					"attributes": {
						"POSITION": 0,
						"NORMAL": 1,
						"TEXCOORD_0": 2,
						"TANGENT": 3
					},
					"indices": 5,
					"material": 1,
					"mode": 4
				}
			]
		}
	],
	"nodes": [
		{
			"name": "UnityGlTF_root",
			"children": [
				1
			]
		},
		{
			"name": "node_Sphere01_Art (37)",
			"mesh": 0,
			"matrix": [1, 0, 0, 0, 0, 1, 0, 0, 0, 0, 1, 0, 0, 0, 0, 1]
		}
	],
	"samplers": [
		{
			"magFilter": 9729,
			"minFilter": 9985,
			"wrapS": 10497,
			"wrapT": 10497
		}
	],
	"scenes": [
		{
			"name":"defaultScene",
			"nodes": [
				0
			]
		}
	],
	"scene": 0,
	"textures": [
		{
			"sampler": 0,
			"source": 0
		},
		{
			"sampler": 0,
			"source": 1
		}
	]
}