{
	"asset": {
		"generator": "Unity 2020.3.11f1",
		"extras": {
			"exporterVersion" : "2.2.1"
		},
		"version": "2.0"
	},
	"accessors": [
		{
			"bufferView": 2,
			"byteOffset": 0,
			"componentType": 5126,
			"count": 1420,
			"max": [ 32.35828, 51.54861, 24.64028 ],
			"min": [ 13.67086, 49.3196, 4.907694 ],
			"type": "VEC3"
		},
		{
			"bufferView": 2,
			"byteOffset": 17040,
			"componentType": 5126,
			"count": 1420,
			"max": [ 0.9991546, 1, 0.999154 ],
			"min": [ -0.9991541, -1, -0.999154 ],
			"type": "VEC3"
		},
		{
			"bufferView": 1,
			"byteOffset": 0,
			"componentType": 5126,
			"count": 1420,
			"max": [ 0.9818673, 0.9739197 ],
			"min": [ 0.02702541, 0.02657348 ],
			"type": "VEC2"
		},
		{
			"bufferView": 3,
			"byteOffset": 0,
			"componentType": 5126,
			"count": 1420,
			"max": [ 0.9991541, 1, 0.999204, 1 ],
			"min": [ -0.9991541, -1, -0.9992067, 1 ],
			"type": "VEC4"
		},
		{
			"bufferView": 0,
			"byteOffset": 0,
			"componentType": 5123,
			"count": 2376,
			"max": [ 1419 ],
			"min": [ 0 ],
			"type": "SCALAR"
		}
	],
	"buffers": [
		{
			"byteLength": 72912,
			"uri": "entity63378.bin"
		}
	],
	"bufferViews": [
		{
			"buffer": 0,
			"byteLength": 4752,
			"target": 34963,
			"byteOffset": 68160
		},
		{
			"buffer": 0,
			"byteLength": 11360,
			"target": 34962,
			"byteStride": 8,
			"byteOffset": 0
		},
		{
			"buffer": 0,
			"byteLength": 34080,
			"target": 34962,
			"byteStride": 12,
			"byteOffset": 11360
		},
		{
			"buffer": 0,
			"byteLength": 22720,
			"target": 34962,
			"byteStride": 16,
			"byteOffset": 45440
		}
	],
	"images": [
		{
			"uri": "Assets/Visuals/Materials/Textures/Hexagon_S_Albedo.png"
		},
		{
			"uri": "Assets/Visuals/Materials/Textures/Hexagon_S_Emissive.jpg"
		}
	],
	"materials": [
		{
			"pbrMetallicRoughness": {
				"baseColorTexture" : {
					"index" : 0,
					"texCoord" : 0
				},
				"baseColorFactor": [1, 1, 1, 1],
				"metallicFactor": 0,
				"roughnessFactor": 1
			},
			"emissiveTexture" : {
				"index" : 1,
				"texCoord" : 0
			},
			"emissiveFactor": [0.36, 0.36, 0.36],
			"doubleSided": false,
			"name": "Hexagon_S_Mat"
		}
	],
	"meshes": [
		{
			"name": "mesh_Hexagon_Floor_04_Small_Art_34468Hexagon_Floor_04_Small_Art",
			"primitives": [
				{
					"attributes": {
						"POSITION": 0,
						"NORMAL": 1,
						"TEXCOORD_0": 2,
						"TANGENT": 3
					},
					"indices": 4,
					"material": 0,
					"mode": 4
				}
			]
		}
	],
	"nodes": [
		{
			"name": "UnityGlTF_root",
			"children": [
				1
			]
		},
		{
			"name": "node_Hexagon_Floor_04_Small_Art",
			"mesh": 0,
			"matrix": [1, 0, 0, 0, 0, 1, 0, 0, 0, 0, 1, 0, 0, 0, 0, 1]
		}
	],
	"samplers": [
		{
			"magFilter": 9729,
			"minFilter": 9985,
			"wrapS": 10497,
			"wrapT": 10497
		}
	],
	"scenes": [
		{
			"name":"defaultScene",
			"nodes": [
				0
			]
		}
	],
	"scene": 0,
	"textures": [
		{
			"sampler": 0,
			"source": 0
		},
		{
			"sampler": 0,
			"source": 1
		}
	]
}