{
	"asset": {
		"generator": "Unity 2020.3.11f1",
		"extras": {
			"exporterVersion" : "2.2.1"
		},
		"version": "2.0"
	},
	"accessors": [
		{
			"bufferView": 2,
			"byteOffset": 0,
			"componentType": 5126,
			"count": 255,
			"max": [ 1.698196, 3.039416, 1.939219 ],
			"min": [ -1.685399, -0.002596915, -1.96782 ],
			"type": "VEC3"
		},
		{
			"bufferView": 2,
			"byteOffset": 3060,
			"componentType": 5126,
			"count": 255,
			"max": [ 1, 1, 0.8660254 ],
			"min": [ -1, -1, -0.8660255 ],
			"type": "VEC3"
		},
		{
			"bufferView": 1,
			"byteOffset": 0,
			"componentType": 5126,
			"count": 255,
			"max": [ 0.983327, 0.9577098 ],
			"min": [ 0.009083088, 0.01473021 ],
			"type": "VEC2"
		},
		{
			"bufferView": 3,
			"byteOffset": 0,
			"componentType": 5126,
			"count": 255,
			"max": [ 1, 0.6685275, 1, 1 ],
			"min": [ -0.8660255, -0.9060698, -1, -1 ],
			"type": "VEC4"
		},
		{
			"bufferView": 0,
			"byteOffset": 0,
			"componentType": 5123,
			"count": 432,
			"max": [ 254 ],
			"min": [ 0 ],
			"type": "SCALAR"
		}
	],
	"buffers": [
		{
			"byteLength": 13104,
			"uri": "entity52802.bin"
		}
	],
	"bufferViews": [
		{
			"buffer": 0,
			"byteLength": 864,
			"target": 34963,
			"byteOffset": 12240
		},
		{
			"buffer": 0,
			"byteLength": 2040,
			"target": 34962,
			"byteStride": 8,
			"byteOffset": 0
		},
		{
			"buffer": 0,
			"byteLength": 6120,
			"target": 34962,
			"byteStride": 12,
			"byteOffset": 2040
		},
		{
			"buffer": 0,
			"byteLength": 4080,
			"target": 34962,
			"byteStride": 16,
			"byteOffset": 8160
		}
	],
	"images": [
		{
			"uri": "Assets/Visuals/Materials/Textures/HoloPot_Albedo.png"
		}
	],
	"materials": [
		{
			"pbrMetallicRoughness": {
				"baseColorTexture" : {
					"index" : 0,
					"texCoord" : 0
				},
				"baseColorFactor": [1, 1, 1, 1],
				"metallicFactor": 0,
				"roughnessFactor": 0.5
			},
			"alphaMode": "BLEND",
			"alphaCutoff": 0.182,
			"emissiveTexture" : {
				"index" : 0,
				"texCoord" : 0
			},
			"emissiveFactor": [0.7071067, 0.7071067, 0.7071067],
			"doubleSided": false,
			"name": "HoloPot_Mat"
		}
	],
	"meshes": [
		{
			"name": "mesh_HoloPot_32738HoloPot",
			"primitives": [
				{
					"attributes": {
						"POSITION": 0,
						"NORMAL": 1,
						"TEXCOORD_0": 2,
						"TANGENT": 3
					},
					"indices": 4,
					"material": 0,
					"mode": 4
				}
			]
		}
	],
	"nodes": [
		{
			"name": "UnityGlTF_root",
			"children": [
				1
			]
		},
		{
			"name": "node_HoloPot",
			"mesh": 0,
			"matrix": [1, 0, 0, 0, 0, 1, 0, 0, 0, 0, 1, 0, 0, 0, 0, 1]
		}
	],
	"samplers": [
		{
			"magFilter": 9729,
			"minFilter": 9985,
			"wrapS": 10497,
			"wrapT": 10497
		}
	],
	"scenes": [
		{
			"name":"defaultScene",
			"nodes": [
				0
			]
		}
	],
	"scene": 0,
	"textures": [
		{
			"sampler": 0,
			"source": 0
		}
	]
}