{
	"asset": {
		"generator": "Unity 2020.3.11f1",
		"extras": {
			"exporterVersion" : "2.2.1"
		},
		"version": "2.0"
	},
	"accessors": [
		{
			"bufferView": 2,
			"byteOffset": 0,
			"componentType": 5126,
			"count": 160,
			"max": [ 1.360253, 1.135732, 1.195055 ],
			"min": [ -1.137256, -1.090412, -1.184356 ],
			"type": "VEC3"
		},
		{
			"bufferView": 2,
			"byteOffset": 1920,
			"componentType": 5126,
			"count": 160,
			"max": [ 0.9960515, 0.9975594, 0.9939787 ],
			"min": [ -0.9967113, -0.9975396, -0.9868685 ],
			"type": "VEC3"
		},
		{
			"bufferView": 1,
			"byteOffset": 0,
			"componentType": 5126,
			"count": 160,
			"max": [ 0.3152025, 0.9830913 ],
			"min": [ 0.02933456, 0.6972234 ],
			"type": "VEC2"
		},
		{
			"bufferView": 3,
			"byteOffset": 0,
			"componentType": 5126,
			"count": 160,
			"max": [ 0.9997491, 0.7730108, 0.9916576, 1 ],
			"min": [ -0.9956512, -0.9814011, -0.9927682, -1 ],
			"type": "VEC4"
		},
		{
			"bufferView": 0,
			"byteOffset": 0,
			"componentType": 5123,
			"count": 324,
			"max": [ 159 ],
			"min": [ 0 ],
			"type": "SCALAR"
		}
	],
	"buffers": [
		{
			"byteLength": 8328,
			"uri": "entity38398.bin"
		}
	],
	"bufferViews": [
		{
			"buffer": 0,
			"byteLength": 648,
			"target": 34963,
			"byteOffset": 7680
		},
		{
			"buffer": 0,
			"byteLength": 1280,
			"target": 34962,
			"byteStride": 8,
			"byteOffset": 0
		},
		{
			"buffer": 0,
			"byteLength": 3840,
			"target": 34962,
			"byteStride": 12,
			"byteOffset": 1280
		},
		{
			"buffer": 0,
			"byteLength": 2560,
			"target": 34962,
			"byteStride": 16,
			"byteOffset": 5120
		}
	],
	"images": [
		{
			"uri": "Assets/Visuals/Materials/Textures/SakuraFlower_Albedo.png"
		}
	],
	"materials": [
		{
			"pbrMetallicRoughness": {
				"baseColorTexture" : {
					"index" : 0,
					"texCoord" : 0
				},
				"baseColorFactor": [1, 1, 1, 1],
				"metallicFactor": 0,
				"roughnessFactor": 1
			},
			"alphaMode": "MASK",
			"alphaCutoff": 0.585,
			"emissiveFactor": [0, 0, 0],
			"doubleSided": true,
			"name": "Bush_Mat"
		}
	],
	"meshes": [
		{
			"name": "mesh_Plane_22862Bush_Art (1)",
			"primitives": [
				{
					"attributes": {
						"POSITION": 0,
						"NORMAL": 1,
						"TEXCOORD_0": 2,
						"TANGENT": 3
					},
					"indices": 4,
					"material": 0,
					"mode": 4
				}
			]
		}
	],
	"nodes": [
		{
			"name": "UnityGlTF_root",
			"children": [
				1
			]
		},
		{
			"name": "node_Bush_Art (1)",
			"mesh": 0,
			"matrix": [1, 0, 0, 0, 0, 1, 0, 0, 0, 0, 1, 0, 0, 0, 0, 1]
		}
	],
	"samplers": [
		{
			"magFilter": 9729,
			"minFilter": 9985,
			"wrapS": 10497,
			"wrapT": 10497
		}
	],
	"scenes": [
		{
			"name":"defaultScene",
			"nodes": [
				0
			]
		}
	],
	"scene": 0,
	"textures": [
		{
			"sampler": 0,
			"source": 0
		}
	]
}