{
	"asset": {
		"generator": "Unity 2020.3.11f1",
		"extras": {
			"exporterVersion" : "2.2.1"
		},
		"version": "2.0"
	},
	"accessors": [
		{
			"bufferView": 2,
			"byteOffset": 0,
			"componentType": 5126,
			"count": 718,
			"max": [ 29.80787, 37.82717, -11.16766 ],
			"min": [ 13.49275, 36.72307, -28.87516 ],
			"type": "VEC3"
		},
		{
			"bufferView": 2,
			"byteOffset": 8616,
			"componentType": 5126,
			"count": 718,
			"max": [ 0.9997845, 1, 0.9998316 ],
			"min": [ -0.9997846, -1, -0.9998316 ],
			"type": "VEC3"
		},
		{
			"bufferView": 1,
			"byteOffset": 0,
			"componentType": 5126,
			"count": 718,
			"max": [ 0.985899, 0.991225 ],
			"min": [ 0.01660365, 0.007479671 ],
			"type": "VEC2"
		},
		{
			"bufferView": 3,
			"byteOffset": 0,
			"componentType": 5126,
			"count": 718,
			"max": [ 0.9981866, 1, 0.9835312, 1 ],
			"min": [ -0.9982054, -1, -0.9506749, 1 ],
			"type": "VEC4"
		},
		{
			"bufferView": 0,
			"byteOffset": 0,
			"componentType": 5123,
			"count": 1524,
			"max": [ 716 ],
			"min": [ 0 ],
			"type": "SCALAR"
		},
		{
			"bufferView": 0,
			"byteOffset": 3048,
			"componentType": 5123,
			"count": 36,
			"max": [ 717 ],
			"min": [ 670 ],
			"type": "SCALAR"
		}
	],
	"buffers": [
		{
			"byteLength": 37584,
			"uri": "entity33838.bin"
		}
	],
	"bufferViews": [
		{
			"buffer": 0,
			"byteLength": 3120,
			"target": 34963,
			"byteOffset": 34464
		},
		{
			"buffer": 0,
			"byteLength": 5744,
			"target": 34962,
			"byteStride": 8,
			"byteOffset": 0
		},
		{
			"buffer": 0,
			"byteLength": 17232,
			"target": 34962,
			"byteStride": 12,
			"byteOffset": 5744
		},
		{
			"buffer": 0,
			"byteLength": 11488,
			"target": 34962,
			"byteStride": 16,
			"byteOffset": 22976
		}
	],
	"images": [
		{
			"uri": "Assets/Visuals/Materials/Textures/Hexagon_L_Albedo.png"
		},
		{
			"uri": "Assets/Visuals/Materials/Textures/Hexagon_L_Emissive.jpg"
		}
	],
	"materials": [
		{
			"pbrMetallicRoughness": {
				"baseColorTexture" : {
					"index" : 0,
					"texCoord" : 0
				},
				"baseColorFactor": [1, 1, 1, 1],
				"metallicFactor": 0,
				"roughnessFactor": 1
			},
			"emissiveTexture" : {
				"index" : 1,
				"texCoord" : 0
			},
			"emissiveFactor": [0.36, 0.36, 0.36],
			"doubleSided": false,
			"name": "Hexagon_L_Mat"
		},
		{
			"pbrMetallicRoughness": {
				"baseColorTexture" : {
					"index" : 0,
					"texCoord" : 0
				},
				"baseColorFactor": [1, 1, 1, 1],
				"metallicFactor": 0,
				"roughnessFactor": 1
			},
			"emissiveTexture" : {
				"index" : 1,
				"texCoord" : 0
			},
			"emissiveFactor": [0.36, 0.36, 0.36],
			"doubleSided": false,
			"name": "Hexagon_fade_L_Mat"
		}
	],
	"meshes": [
		{
			"name": "mesh_Hexagon_Floor03_Large_Art_21652Hexagon_Floor03_Large_Art",
			"primitives": [
				{
					"attributes": {
						"POSITION": 0,
						"NORMAL": 1,
						"TEXCOORD_0": 2,
						"TANGENT": 3
					},
					"indices": 4,
					"material": 0,
					"mode": 4
				},
				{
					"attributes": {
						"POSITION": 0,
						"NORMAL": 1,
						"TEXCOORD_0": 2,
						"TANGENT": 3
					},
					"indices": 5,
					"material": 1,
					"mode": 4
				}
			]
		}
	],
	"nodes": [
		{
			"name": "UnityGlTF_root",
			"children": [
				1
			]
		},
		{
			"name": "node_Hexagon_Floor03_Large_Art",
			"mesh": 0,
			"matrix": [1, 0, 0, 0, 0, 1, 0, 0, 0, 0, 1, 0, 0, 0, 0, 1]
		}
	],
	"samplers": [
		{
			"magFilter": 9729,
			"minFilter": 9985,
			"wrapS": 10497,
			"wrapT": 10497
		}
	],
	"scenes": [
		{
			"name":"defaultScene",
			"nodes": [
				0
			]
		}
	],
	"scene": 0,
	"textures": [
		{
			"sampler": 0,
			"source": 0
		},
		{
			"sampler": 0,
			"source": 1
		}
	]
}