{
	"asset": {
		"generator": "Unity 2020.3.11f1",
		"extras": {
			"exporterVersion" : "2.2.1"
		},
		"version": "2.0"
	},
	"accessors": [
		{
			"bufferView": 2,
			"byteOffset": 0,
			"componentType": 5126,
			"count": 890,
			"max": [ 29.30441, 95.75565, 25.28358 ],
			"min": [ -37.21314, 37.52687, -33.56387 ],
			"type": "VEC3"
		},
		{
			"bufferView": 2,
			"byteOffset": 10680,
			"componentType": 5126,
			"count": 890,
			"max": [ 0.999842, 1, 0.998798 ],
			"min": [ -0.9990008, -5.262817E-07, -0.9987497 ],
			"type": "VEC3"
		},
		{
			"bufferView": 1,
			"byteOffset": 0,
			"componentType": 5126,
			"count": 890,
			"max": [ 0.9864799, 0.993055 ],
			"min": [ -0.0700442, 0.01115777 ],
			"type": "VEC2"
		},
		{
			"bufferView": 3,
			"byteOffset": 0,
			"componentType": 5126,
			"count": 890,
			"max": [ 0.3385551, 0.844743, 0.9998819, 1 ],
			"min": [ -0.9997067, -0.8731181, -0.9963941, -1 ],
			"type": "VEC4"
		},
		{
			"bufferView": 0,
			"byteOffset": 0,
			"componentType": 5123,
			"count": 3669,
			"max": [ 889 ],
			"min": [ 0 ],
			"type": "SCALAR"
		}
	],
	"buffers": [
		{
			"byteLength": 50058,
			"uri": "entity59422.bin"
		}
	],
	"bufferViews": [
		{
			"buffer": 0,
			"byteLength": 7338,
			"target": 34963,
			"byteOffset": 42720
		},
		{
			"buffer": 0,
			"byteLength": 7120,
			"target": 34962,
			"byteStride": 8,
			"byteOffset": 0
		},
		{
			"buffer": 0,
			"byteLength": 21360,
			"target": 34962,
			"byteStride": 12,
			"byteOffset": 7120
		},
		{
			"buffer": 0,
			"byteLength": 14240,
			"target": 34962,
			"byteStride": 16,
			"byteOffset": 28480
		}
	],
	"images": [
		{
			"uri": "Assets/Visuals/Materials/Textures/Sphere01_Albedo.png"
		},
		{
			"uri": "Assets/Visuals/Materials/Textures/Sphere03_Emissive.jpg"
		}
	],
	"materials": [
		{
			"pbrMetallicRoughness": {
				"baseColorTexture" : {
					"index" : 0,
					"texCoord" : 0
				},
				"baseColorFactor": [1, 1, 1, 0.5333334],
				"metallicFactor": 0,
				"roughnessFactor": 1
			},
			"alphaMode": "BLEND",
			"alphaCutoff": 0.505,
			"emissiveTexture" : {
				"index" : 1,
				"texCoord" : 0
			},
			"emissiveFactor": [1.498039, 1.498039, 1.498039],
			"doubleSided": false,
			"name": "VIP_Domes_Mat"
		}
	],
	"meshes": [
		{
			"name": "mesh_VIP_Domes_Base_33808VIP_Domes_Base",
			"primitives": [
				{
					"attributes": {
						"POSITION": 0,
						"NORMAL": 1,
						"TEXCOORD_0": 2,
						"TANGENT": 3
					},
					"indices": 4,
					"material": 0,
					"mode": 4
				}
			]
		}
	],
	"nodes": [
		{
			"name": "UnityGlTF_root",
			"children": [
				1
			]
		},
		{
			"name": "node_VIP_Domes_Base",
			"mesh": 0,
			"matrix": [1, 0, 0, 0, 0, 1, 0, 0, 0, 0, 1, 0, 0, 0, 0, 1]
		}
	],
	"samplers": [
		{
			"magFilter": 9729,
			"minFilter": 9985,
			"wrapS": 10497,
			"wrapT": 10497
		}
	],
	"scenes": [
		{
			"name":"defaultScene",
			"nodes": [
				0
			]
		}
	],
	"scene": 0,
	"textures": [
		{
			"sampler": 0,
			"source": 0
		},
		{
			"sampler": 0,
			"source": 1
		}
	]
}