{
	"asset": {
		"generator": "Unity 2020.3.11f1",
		"extras": {
			"exporterVersion" : "2.2.1"
		},
		"version": "2.0"
	},
	"accessors": [
		{
			"bufferView": 2,
			"byteOffset": 0,
			"componentType": 5126,
			"count": 179,
			"max": [ 0.0515642, 1.644797, 1.818667 ],
			"min": [ -0.04594923, -1.644797, -1.819345 ],
			"type": "VEC3"
		},
		{
			"bufferView": 2,
			"byteOffset": 2148,
			"componentType": 5126,
			"count": 179,
			"max": [ 1, 1, 0.9996141 ],
			"min": [ -1, -1, -0.9996141 ],
			"type": "VEC3"
		},
		{
			"bufferView": 1,
			"byteOffset": 0,
			"componentType": 5126,
			"count": 179,
			"max": [ 0.4314415, 0.9453559 ],
			"min": [ 0.08244169, 0.01956503 ],
			"type": "VEC2"
		},
		{
			"bufferView": 3,
			"byteOffset": 0,
			"componentType": 5126,
			"count": 179,
			"max": [ 1, 0.969913, 0.5454816, 1 ],
			"min": [ -0.9985406, -0.9708781, -0.5688979, -1 ],
			"type": "VEC4"
		},
		{
			"bufferView": 0,
			"byteOffset": 0,
			"componentType": 5123,
			"count": 426,
			"max": [ 178 ],
			"min": [ 0 ],
			"type": "SCALAR"
		}
	],
	"buffers": [
		{
			"byteLength": 9444,
			"uri": "entity17534n.bin"
		}
	],
	"bufferViews": [
		{
			"buffer": 0,
			"byteLength": 852,
			"target": 34963,
			"byteOffset": 8592
		},
		{
			"buffer": 0,
			"byteLength": 1432,
			"target": 34962,
			"byteStride": 8,
			"byteOffset": 0
		},
		{
			"buffer": 0,
			"byteLength": 4296,
			"target": 34962,
			"byteStride": 12,
			"byteOffset": 1432
		},
		{
			"buffer": 0,
			"byteLength": 2864,
			"target": 34962,
			"byteStride": 16,
			"byteOffset": 5728
		}
	],
	"images": [
		{
			"uri": "Assets/Visuals/Materials/Textures/Teleport_Albedo.png"
		}
	],
	"materials": [
		{
			"pbrMetallicRoughness": {
				"baseColorTexture" : {
					"index" : 0,
					"texCoord" : 0
				},
				"baseColorFactor": [1, 1, 1, 1],
				"metallicFactor": 0,
				"roughnessFactor": 1
			},
			"emissiveFactor": [0, 0, 0],
			"doubleSided": false,
			"name": "Signbook_Mat"
		}
	],
	"meshes": [
		{
			"name": "mesh_Signbook_Board_20082Signbook_Board_Art",
			"primitives": [
				{
					"attributes": {
						"POSITION": 0,
						"NORMAL": 1,
						"TEXCOORD_0": 2,
						"TANGENT": 3
					},
					"indices": 4,
					"material": 0,
					"mode": 4
				}
			]
		}
	],
	"nodes": [
		{
			"name": "UnityGlTF_root",
			"children": [
				1
			]
		},
		{
			"name": "node_Signbook_Board_Art",
			"mesh": 0,
			"matrix": [1, 0, 0, 0, 0, 1, 0, 0, 0, 0, 1, 0, 0, 0, 0, 1]
		}
	],
	"samplers": [
		{
			"magFilter": 9729,
			"minFilter": 9985,
			"wrapS": 10497,
			"wrapT": 10497
		}
	],
	"scenes": [
		{
			"name":"defaultScene",
			"nodes": [
				0
			]
		}
	],
	"scene": 0,
	"textures": [
		{
			"sampler": 0,
			"source": 0
		}
	]
}