{
	"asset": {
		"generator": "Unity 2020.3.11f1",
		"extras": {
			"exporterVersion" : "2.2.1"
		},
		"version": "2.0"
	},
	"accessors": [
		{
			"bufferView": 2,
			"byteOffset": 0,
			"componentType": 5126,
			"count": 488,
			"max": [ 38.62843, 57.12131, 38.88648 ],
			"min": [ 2.695982, 48.85081, -2.860203 ],
			"type": "VEC3"
		},
		{
			"bufferView": 2,
			"byteOffset": 5856,
			"componentType": 5126,
			"count": 488,
			"max": [ 0.9404984, 1, 0.9994695 ],
			"min": [ -0.9024892, -1, -0.9990968 ],
			"type": "VEC3"
		},
		{
			"bufferView": 1,
			"byteOffset": 0,
			"componentType": 5126,
			"count": 488,
			"max": [ 0.65625, 0.9790665 ],
			"min": [ 0, 0 ],
			"type": "VEC2"
		},
		{
			"bufferView": 3,
			"byteOffset": 0,
			"componentType": 5126,
			"count": 488,
			"max": [ 1, 0, 0.8864922, 1 ],
			"min": [ -0.9990968, 0, -0.8864922, 1 ],
			"type": "VEC4"
		},
		{
			"bufferView": 0,
			"byteOffset": 0,
			"componentType": 5123,
			"count": 882,
			"max": [ 487 ],
			"min": [ 0 ],
			"type": "SCALAR"
		}
	],
	"buffers": [
		{
			"byteLength": 25188,
			"uri": "entity34854.bin"
		}
	],
	"bufferViews": [
		{
			"buffer": 0,
			"byteLength": 1764,
			"target": 34963,
			"byteOffset": 23424
		},
		{
			"buffer": 0,
			"byteLength": 3904,
			"target": 34962,
			"byteStride": 8,
			"byteOffset": 0
		},
		{
			"buffer": 0,
			"byteLength": 11712,
			"target": 34962,
			"byteStride": 12,
			"byteOffset": 3904
		},
		{
			"buffer": 0,
			"byteLength": 7808,
			"target": 34962,
			"byteStride": 16,
			"byteOffset": 15616
		}
	],
	"materials": [
		{
			"pbrMetallicRoughness": {
				"baseColorFactor": [1, 0.004716992, 0.004716992, 1],
				"metallicFactor": 0,
				"roughnessFactor": 0.5
			},
			"emissiveFactor": [0, 0, 0],
			"doubleSided": false,
			"name": "Collider_Mat"
		}
	],
	"meshes": [
		{
			"name": "mesh_Hexagon_Floor_04_collider_22158Hexagon_Floor_04_collider",
			"primitives": [
				{
					"attributes": {
						"POSITION": 0,
						"NORMAL": 1,
						"TEXCOORD_0": 2,
						"TANGENT": 3
					},
					"indices": 4,
					"material": 0,
					"mode": 4
				}
			]
		}
	],
	"nodes": [
		{
			"name": "UnityGlTF_root",
			"children": [
				1
			]
		},
		{
			"name": "node_Hexagon_Floor_04_collider",
			"mesh": 0,
			"matrix": [1, 0, 0, 0, 0, 1, 0, 0, 0, 0, 1, 0, 0, 0, 0, 1]
		}
	],
	"scenes": [
		{
			"name":"defaultScene",
			"nodes": [
				0
			]
		}
	],
	"scene": 0
}