{
	"asset": {
		"generator": "Unity 2020.3.11f1",
		"extras": {
			"exporterVersion" : "2.2.1"
		},
		"version": "2.0"
	},
	"accessors": [
		{
			"bufferView": 2,
			"byteOffset": 0,
			"componentType": 5126,
			"count": 3124,
			"max": [ 2.679967, 6.242548, 2.948274 ],
			"min": [ -3.212755, 1.222402, -2.912439 ],
			"type": "VEC3"
		},
		{
			"bufferView": 2,
			"byteOffset": 37488,
			"componentType": 5126,
			"count": 3124,
			"max": [ 0.6996069, -0.5697465, 0.7000182 ],
			"min": [ -0.5909452, -0.9999106, -0.7250949 ],
			"type": "VEC3"
		},
		{
			"bufferView": 1,
			"byteOffset": 0,
			"componentType": 5126,
			"count": 3124,
			"max": [ 0.969521, 0.3187178 ],
			"min": [ 0.6766225, 0.01960629 ],
			"type": "VEC2"
		},
		{
			"bufferView": 3,
			"byteOffset": 0,
			"componentType": 5126,
			"count": 3124,
			"max": [ 0.747203, 0.6149251, 0.6289771, -1 ],
			"min": [ -0.9999706, -0.7395059, -0.9998661, -1 ],
			"type": "VEC4"
		},
		{
			"bufferView": 0,
			"byteOffset": 0,
			"componentType": 5123,
			"count": 4686,
			"max": [ 3123 ],
			"min": [ 0 ],
			"type": "SCALAR"
		}
	],
	"buffers": [
		{
			"byteLength": 159324,
			"uri": "entity37846.bin"
		}
	],
	"bufferViews": [
		{
			"buffer": 0,
			"byteLength": 9372,
			"target": 34963,
			"byteOffset": 149952
		},
		{
			"buffer": 0,
			"byteLength": 24992,
			"target": 34962,
			"byteStride": 8,
			"byteOffset": 0
		},
		{
			"buffer": 0,
			"byteLength": 74976,
			"target": 34962,
			"byteStride": 12,
			"byteOffset": 24992
		},
		{
			"buffer": 0,
			"byteLength": 49984,
			"target": 34962,
			"byteStride": 16,
			"byteOffset": 99968
		}
	],
	"images": [
		{
			"uri": "Assets/Visuals/Materials/Textures/SakuraFlower_Albedo.png"
		}
	],
	"materials": [
		{
			"pbrMetallicRoughness": {
				"baseColorTexture" : {
					"index" : 0,
					"texCoord" : 0
				},
				"baseColorFactor": [1, 1, 1, 1],
				"metallicFactor": 0,
				"roughnessFactor": 1
			},
			"alphaMode": "MASK",
			"alphaCutoff": 0.5,
			"emissiveFactor": [0, 0, 0],
			"doubleSided": false,
			"name": "Flowers_Mat"
		}
	],
	"meshes": [
		{
			"name": "mesh_FlowersShadow_22734FlowersShadow",
			"primitives": [
				{
					"attributes": {
						"POSITION": 0,
						"NORMAL": 1,
						"TEXCOORD_0": 2,
						"TANGENT": 3
					},
					"indices": 4,
					"material": 0,
					"mode": 4
				}
			]
		}
	],
	"nodes": [
		{
			"name": "UnityGlTF_root",
			"children": [
				1
			]
		},
		{
			"name": "node_FlowersShadow",
			"mesh": 0,
			"matrix": [1, 0, 0, 0, 0, 1, 0, 0, 0, 0, 1, 0, 0, 0, 0, 1]
		}
	],
	"samplers": [
		{
			"magFilter": 9729,
			"minFilter": 9985,
			"wrapS": 10497,
			"wrapT": 10497
		}
	],
	"scenes": [
		{
			"name":"defaultScene",
			"nodes": [
				0
			]
		}
	],
	"scene": 0,
	"textures": [
		{
			"sampler": 0,
			"source": 0
		}
	]
}