{
	"asset": {
		"generator": "Unity 2020.3.11f1",
		"extras": {
			"exporterVersion" : "2.2.1"
		},
		"version": "2.0"
	},
	"accessors": [
		{
			"bufferView": 2,
			"byteOffset": 0,
			"componentType": 5126,
			"count": 20,
			"max": [ 0.124219, 0.03556234, 2.842171E-16 ],
			"min": [ -0.124219, -0.03556236, -4.263256E-16 ],
			"type": "VEC3"
		},
		{
			"bufferView": 2,
			"byteOffset": 240,
			"componentType": 5126,
			"count": 20,
			"max": [ 0, 0, 1 ],
			"min": [ 0, 0, 1 ],
			"type": "VEC3"
		},
		{
			"bufferView": 1,
			"byteOffset": 0,
			"componentType": 5126,
			"count": 20,
			"max": [ 0.9222625, 0.7095494 ],
			"min": [ 0.2559943, 0.1617668 ],
			"type": "VEC2"
		},
		{
			"bufferView": 3,
			"byteOffset": 0,
			"componentType": 5126,
			"count": 20,
			"max": [ 1, 0.9995802, 0, 1 ],
			"min": [ -1, -0.9995801, 0, 1 ],
			"type": "VEC4"
		},
		{
			"bufferView": 0,
			"byteOffset": 0,
			"componentType": 5123,
			"count": 6,
			"max": [ 3 ],
			"min": [ 0 ],
			"type": "SCALAR"
		},
		{
			"bufferView": 0,
			"byteOffset": 12,
			"componentType": 5123,
			"count": 24,
			"max": [ 19 ],
			"min": [ 4 ],
			"type": "SCALAR"
		}
	],
	"buffers": [
		{
			"byteLength": 1020,
			"uri": "entity8380n.bin"
		}
	],
	"bufferViews": [
		{
			"buffer": 0,
			"byteLength": 60,
			"target": 34963,
			"byteOffset": 960
		},
		{
			"buffer": 0,
			"byteLength": 160,
			"target": 34962,
			"byteStride": 8,
			"byteOffset": 0
		},
		{
			"buffer": 0,
			"byteLength": 480,
			"target": 34962,
			"byteStride": 12,
			"byteOffset": 160
		},
		{
			"buffer": 0,
			"byteLength": 320,
			"target": 34962,
			"byteStride": 16,
			"byteOffset": 640
		}
	],
	"materials": [
		{
			"pbrMetallicRoughness": {
				"baseColorFactor": [1, 1, 1, 1],
				"metallicFactor": 0,
				"roughnessFactor": 0.5
			},
			"emissiveFactor": [0, 0, 0],
			"doubleSided": false,
			"name": "Default-Material"
		}
	],
	"meshes": [
		{
			"name": "mesh_LinkBox_19140LinkBox_Art NFT_Display_v2 (1)",
			"primitives": [
				{
					"attributes": {
						"POSITION": 0,
						"NORMAL": 1,
						"TEXCOORD_0": 2,
						"TANGENT": 3
					},
					"indices": 4,
					"material": 0,
					"mode": 4
				},
				{
					"attributes": {
						"POSITION": 0,
						"NORMAL": 1,
						"TEXCOORD_0": 2,
						"TANGENT": 3
					},
					"indices": 5,
					"material": 0,
					"mode": 4
				}
			]
		}
	],
	"nodes": [
		{
			"name": "UnityGlTF_root",
			"children": [
				1
			]
		},
		{
			"name": "node_LinkBox_Art NFT_Display_v2 (1)",
			"mesh": 0,
			"matrix": [1, 0, 0, 0, 0, 1, 0, 0, 0, 0, 1, 0, 0, 0, 0, 1]
		}
	],
	"scenes": [
		{
			"name":"defaultScene",
			"nodes": [
				0
			]
		}
	],
	"scene": 0
}