{
	"asset": {
		"generator": "Unity 2020.3.11f1",
		"extras": {
			"exporterVersion" : "2.2.1"
		},
		"version": "2.0"
	},
	"accessors": [
		{
			"bufferView": 2,
			"byteOffset": 0,
			"componentType": 5126,
			"count": 3256,
			"max": [ 16.10071, 84.65867, -6.416101 ],
			"min": [ -8.368436, 72.41084, -27.81537 ],
			"type": "VEC3"
		},
		{
			"bufferView": 2,
			"byteOffset": 39072,
			"componentType": 5126,
			"count": 3256,
			"max": [ 0.999979, 1, 0.999979 ],
			"min": [ -0.999979, -1, -0.999979 ],
			"type": "VEC3"
		},
		{
			"bufferView": 1,
			"byteOffset": 0,
			"componentType": 5126,
			"count": 3256,
			"max": [ 2.281552, 0.9997802 ],
			"min": [ -1.302302, 0.0001023017 ],
			"type": "VEC2"
		},
		{
			"bufferView": 3,
			"byteOffset": 0,
			"componentType": 5126,
			"count": 3256,
			"max": [ 1, 1, 0.999979, 1 ],
			"min": [ -0.970701, -1, -0.999979, -1 ],
			"type": "VEC4"
		},
		{
			"bufferView": 0,
			"byteOffset": 0,
			"componentType": 5123,
			"count": 6738,
			"max": [ 3255 ],
			"min": [ 0 ],
			"type": "SCALAR"
		}
	],
	"buffers": [
		{
			"byteLength": 169764,
			"uri": "entity55482.bin"
		}
	],
	"bufferViews": [
		{
			"buffer": 0,
			"byteLength": 13476,
			"target": 34963,
			"byteOffset": 156288
		},
		{
			"buffer": 0,
			"byteLength": 26048,
			"target": 34962,
			"byteStride": 8,
			"byteOffset": 0
		},
		{
			"buffer": 0,
			"byteLength": 78144,
			"target": 34962,
			"byteStride": 12,
			"byteOffset": 26048
		},
		{
			"buffer": 0,
			"byteLength": 52096,
			"target": 34962,
			"byteStride": 16,
			"byteOffset": 104192
		}
	],
	"images": [
		{
			"uri": "Assets/Visuals/Materials/Textures/Atlas01_Albedo.png"
		}
	],
	"materials": [
		{
			"pbrMetallicRoughness": {
				"baseColorTexture" : {
					"index" : 0,
					"texCoord" : 0
				},
				"baseColorFactor": [1, 1, 1, 1],
				"metallicFactor": 0,
				"roughnessFactor": 1
			},
			"emissiveFactor": [0, 0, 0],
			"doubleSided": false,
			"name": "Atlas01_Mat"
		}
	],
	"meshes": [
		{
			"name": "mesh_VIP_Wall_33374VIP_Wall01_Art",
			"primitives": [
				{
					"attributes": {
						"POSITION": 0,
						"NORMAL": 1,
						"TEXCOORD_0": 2,
						"TANGENT": 3
					},
					"indices": 4,
					"material": 0,
					"mode": 4
				}
			]
		}
	],
	"nodes": [
		{
			"name": "UnityGlTF_root",
			"children": [
				1
			]
		},
		{
			"name": "node_VIP_Wall01_Art",
			"mesh": 0,
			"matrix": [1, 0, 0, 0, 0, 1, 0, 0, 0, 0, 1, 0, 0, 0, 0, 1]
		}
	],
	"samplers": [
		{
			"magFilter": 9729,
			"minFilter": 9985,
			"wrapS": 10497,
			"wrapT": 10497
		}
	],
	"scenes": [
		{
			"name":"defaultScene",
			"nodes": [
				0
			]
		}
	],
	"scene": 0,
	"textures": [
		{
			"sampler": 0,
			"source": 0
		}
	]
}