{
	"asset": {
		"generator": "Unity 2020.3.11f1",
		"extras": {
			"exporterVersion" : "2.2.1"
		},
		"version": "2.0"
	},
	"accessors": [
		{
			"bufferView": 1,
			"byteOffset": 0,
			"componentType": 5126,
			"count": 226,
			"max": [ 7.508296 ],
			"min": [ 0 ],
			"type": "SCALAR"
		},
		{
			"bufferView": 5,
			"byteOffset": 0,
			"componentType": 5126,
			"count": 226,
			"max": [ 0, 0, 0 ],
			"min": [ 0, 0, 0 ],
			"type": "VEC3"
		},
		{
			"bufferView": 6,
			"byteOffset": 0,
			"componentType": 5126,
			"count": 226,
			"max": [ 0, 0, 0, -1 ],
			"min": [ 0, 0, 0, -1 ],
			"type": "VEC4"
		},
		{
			"bufferView": 5,
			"byteOffset": 2712,
			"componentType": 5126,
			"count": 226,
			"max": [ 1, 1, 1 ],
			"min": [ 0.9725882, 0.9725882, 0.9725882 ],
			"type": "VEC3"
		},
		{
			"bufferView": 3,
			"byteOffset": 0,
			"componentType": 5126,
			"count": 4,
			"max": [ 2.447604, 6.591926, 1.19113E-07 ],
			"min": [ -2.756656, 0.3186922, -1.550989E-07 ],
			"type": "VEC3"
		},
		{
			"bufferView": 3,
			"byteOffset": 48,
			"componentType": 5126,
			"count": 4,
			"max": [ 0, 0, -1 ],
			"min": [ 0, 0, -1 ],
			"type": "VEC3"
		},
		{
			"bufferView": 2,
			"byteOffset": 0,
			"componentType": 5126,
			"count": 4,
			"max": [ 0.8755364, 0.9785278 ],
			"min": [ 0.1665654, 0.1239316 ],
			"type": "VEC2"
		},
		{
			"bufferView": 4,
			"byteOffset": 0,
			"componentType": 5126,
			"count": 4,
			"max": [ -1, 0, 0, 1 ],
			"min": [ -1, 0, 0, 1 ],
			"type": "VEC4"
		},
		{
			"bufferView": 0,
			"byteOffset": 0,
			"componentType": 5123,
			"count": 6,
			"max": [ 3 ],
			"min": [ 0 ],
			"type": "SCALAR"
		}
	],
	"animations": [
		{
			"name": "HoloTree_Art (14)",
			"channels": [
				{
					"sampler": 0,
					"target": {
						"node": 2,
						"path": "translation"
					}
				},
				{
					"sampler": 1,
					"target": {
						"node": 2,
						"path": "rotation"
					}
				},
				{
					"sampler": 2,
					"target": {
						"node": 2,
						"path": "scale"
					}
				}
			],
			"samplers": [
				{
					"input": 0,
					"interpolation": "LINEAR",
					"output": 1
				},
				{
					"input": 0,
					"interpolation": "LINEAR",
					"output": 2
				},
				{
					"input": 0,
					"interpolation": "LINEAR",
					"output": 3
				}
			]
		}
	],
	"buffers": [
		{
			"byteLength": 10148,
			"uri": "entity36930.bin"
		}
	],
	"bufferViews": [
		{
			"buffer": 0,
			"byteLength": 12,
			"target": 34963,
			"byteOffset": 1096
		},
		{
			"buffer": 0,
			"byteLength": 904,
			"byteOffset": 0
		},
		{
			"buffer": 0,
			"byteLength": 32,
			"target": 34962,
			"byteStride": 8,
			"byteOffset": 904
		},
		{
			"buffer": 0,
			"byteLength": 96,
			"target": 34962,
			"byteStride": 12,
			"byteOffset": 936
		},
		{
			"buffer": 0,
			"byteLength": 64,
			"target": 34962,
			"byteStride": 16,
			"byteOffset": 1032
		},
		{
			"buffer": 0,
			"byteLength": 5424,
			"byteStride": 12,
			"byteOffset": 1108
		},
		{
			"buffer": 0,
			"byteLength": 3616,
			"byteStride": 16,
			"byteOffset": 6532
		}
	],
	"images": [
		{
			"uri": "Assets/Visuals/Materials/Textures/HoloTree_albedo.png"
		}
	],
	"materials": [
		{
			"pbrMetallicRoughness": {
				"baseColorTexture" : {
					"index" : 0,
					"texCoord" : 0
				},
				"baseColorFactor": [1, 1, 1, 1],
				"metallicFactor": 0,
				"roughnessFactor": 1
			},
			"alphaMode": "MASK",
			"alphaCutoff": 0.5,
			"emissiveTexture" : {
				"index" : 0,
				"texCoord" : 0
			},
			"emissiveFactor": [0.4078431, 0.4078431, 0.4078431],
			"doubleSided": true,
			"name": "HoloTree_Mat"
		}
	],
	"meshes": [
		{
			"name": "mesh_HoloTree_22238HoloTree",
			"primitives": [
				{
					"attributes": {
						"POSITION": 4,
						"NORMAL": 5,
						"TEXCOORD_0": 6,
						"TANGENT": 7
					},
					"indices": 8,
					"material": 0,
					"mode": 4
				}
			]
		}
	],
	"nodes": [
		{
			"name": "UnityGlTF_root",
			"children": [
				1
			]
		},
		{
			"name": "node_HoloTree_Art (14)",
			"children": [
				2
			],
			"matrix": [1, 0, 0, 0, 0, 1, 0, 0, 0, 0, 1, 0, 0, 0, 0, 1]
		},
		{
			"name": "node_HoloTree",
			"mesh": 0
		}
	],
	"samplers": [
		{
			"magFilter": 9729,
			"minFilter": 9985,
			"wrapS": 10497,
			"wrapT": 10497
		}
	],
	"scenes": [
		{
			"name":"defaultScene",
			"nodes": [
				0
			]
		}
	],
	"scene": 0,
	"textures": [
		{
			"sampler": 0,
			"source": 0
		}
	]
}