{
	"asset": {
		"generator": "Unity 2020.3.11f1",
		"extras": {
			"exporterVersion" : "2.2.1"
		},
		"version": "2.0"
	},
	"accessors": [
		{
			"bufferView": 2,
			"byteOffset": 0,
			"componentType": 5126,
			"count": 322,
			"max": [ 1, 1, 0.056465 ],
			"min": [ -1, -1, -0.08887548 ],
			"type": "VEC3"
		},
		{
			"bufferView": 2,
			"byteOffset": 3864,
			"componentType": 5126,
			"count": 322,
			"max": [ 1, 1, 1 ],
			"min": [ -1, -1, -1 ],
			"type": "VEC3"
		},
		{
			"bufferView": 1,
			"byteOffset": 0,
			"componentType": 5126,
			"count": 322,
			"max": [ 0.9895828, 0.9796166 ],
			"min": [ 0.0001140908, 0.0001140908 ],
			"type": "VEC2"
		},
		{
			"bufferView": 3,
			"byteOffset": 0,
			"componentType": 5126,
			"count": 322,
			"max": [ 0.8868828, 0.1866973, 0.9970066, 1 ],
			"min": [ -0.1194988, -0.8193327, -0.9970064, 1 ],
			"type": "VEC4"
		},
		{
			"bufferView": 0,
			"byteOffset": 0,
			"componentType": 5123,
			"count": 1152,
			"max": [ 321 ],
			"min": [ 0 ],
			"type": "SCALAR"
		}
	],
	"buffers": [
		{
			"byteLength": 17760,
			"uri": "entity24068.bin"
		}
	],
	"bufferViews": [
		{
			"buffer": 0,
			"byteLength": 2304,
			"target": 34963,
			"byteOffset": 15456
		},
		{
			"buffer": 0,
			"byteLength": 2576,
			"target": 34962,
			"byteStride": 8,
			"byteOffset": 0
		},
		{
			"buffer": 0,
			"byteLength": 7728,
			"target": 34962,
			"byteStride": 12,
			"byteOffset": 2576
		},
		{
			"buffer": 0,
			"byteLength": 5152,
			"target": 34962,
			"byteStride": 16,
			"byteOffset": 10304
		}
	],
	"images": [
		{
			"uri": "Assets/Visuals/Materials/Textures/Gong_Albedo.png"
		}
	],
	"materials": [
		{
			"pbrMetallicRoughness": {
				"baseColorTexture" : {
					"index" : 0,
					"texCoord" : 0
				},
				"baseColorFactor": [1, 1, 1, 1],
				"metallicFactor": 0,
				"roughnessFactor": 0.792
			},
			"emissiveFactor": [0, 0, 0],
			"doubleSided": false,
			"name": "Gong_Mat"
		}
	],
	"meshes": [
		{
			"name": "mesh_Gong_22180Gong",
			"primitives": [
				{
					"attributes": {
						"POSITION": 0,
						"NORMAL": 1,
						"TEXCOORD_0": 2,
						"TANGENT": 3
					},
					"indices": 4,
					"material": 0,
					"mode": 4
				}
			]
		}
	],
	"nodes": [
		{
			"name": "UnityGlTF_root",
			"children": [
				1
			]
		},
		{
			"name": "node_Gong",
			"mesh": 0,
			"matrix": [1, 0, 0, 0, 0, 1, 0, 0, 0, 0, 1, 0, 0, 0, 0, 1]
		}
	],
	"samplers": [
		{
			"magFilter": 9729,
			"minFilter": 9985,
			"wrapS": 10497,
			"wrapT": 10497
		}
	],
	"scenes": [
		{
			"name":"defaultScene",
			"nodes": [
				0
			]
		}
	],
	"scene": 0,
	"textures": [
		{
			"sampler": 0,
			"source": 0
		}
	]
}