{
	"asset": {
		"generator": "Unity 2020.3.11f1",
		"extras": {
			"exporterVersion" : "2.2.1"
		},
		"version": "2.0"
	},
	"accessors": [
		{
			"bufferView": 2,
			"byteOffset": 0,
			"componentType": 5126,
			"count": 2959,
			"max": [ 0.4372124, 1.024715, 0.5067158 ],
			"min": [ -0.4372124, 0.01209272, -0.4561805 ],
			"type": "VEC3"
		},
		{
			"bufferView": 2,
			"byteOffset": 35508,
			"componentType": 5126,
			"count": 2959,
			"max": [ 0.9999352, 0.999467, 1 ],
			"min": [ -0.9999352, -0.9999397, -0.9991294 ],
			"type": "VEC3"
		},
		{
			"bufferView": 1,
			"byteOffset": 0,
			"componentType": 5126,
			"count": 2959,
			"max": [ 0.9367853, 0.9322773 ],
			"min": [ -0.3957604, 0.3573189 ],
			"type": "VEC2"
		},
		{
			"bufferView": 3,
			"byteOffset": 0,
			"componentType": 5126,
			"count": 2959,
			"max": [ 1, 1, 0.9996601, 1 ],
			"min": [ -1, -0.9999886, -0.9994068, -1 ],
			"type": "VEC4"
		},
		{
			"bufferView": 0,
			"byteOffset": 0,
			"componentType": 5123,
			"count": 1824,
			"max": [ 614 ],
			"min": [ 0 ],
			"type": "SCALAR"
		},
		{
			"bufferView": 0,
			"byteOffset": 3648,
			"componentType": 5123,
			"count": 6252,
			"max": [ 2958 ],
			"min": [ 615 ],
			"type": "SCALAR"
		}
	],
	"buffers": [
		{
			"byteLength": 158184,
			"uri": "entity64082.bin"
		}
	],
	"bufferViews": [
		{
			"buffer": 0,
			"byteLength": 16152,
			"target": 34963,
			"byteOffset": 142032
		},
		{
			"buffer": 0,
			"byteLength": 23672,
			"target": 34962,
			"byteStride": 8,
			"byteOffset": 0
		},
		{
			"buffer": 0,
			"byteLength": 71016,
			"target": 34962,
			"byteStride": 12,
			"byteOffset": 23672
		},
		{
			"buffer": 0,
			"byteLength": 47344,
			"target": 34962,
			"byteStride": 16,
			"byteOffset": 94688
		}
	],
	"materials": [
		{
			"pbrMetallicRoughness": {
				"baseColorFactor": [1, 1, 1, 1],
				"metallicFactor": 0,
				"roughnessFactor": 1
			},
			"emissiveFactor": [0.2432034, 0.2432034, 0.2432034],
			"doubleSided": false,
			"name": "CA_Logo_Mat"
		},
		{
			"pbrMetallicRoughness": {
				"baseColorFactor": [0, 0, 0, 1],
				"metallicFactor": 0,
				"roughnessFactor": 1
			},
			"emissiveFactor": [0, 0, 0],
			"doubleSided": false,
			"name": "CA_Wireframe_Mat"
		}
	],
	"meshes": [
		{
			"name": "mesh_CA_Logo_34496CA_Logo_Art",
			"primitives": [
				{
					"attributes": {
						"POSITION": 0,
						"NORMAL": 1,
						"TEXCOORD_0": 2,
						"TANGENT": 3
					},
					"indices": 4,
					"material": 0,
					"mode": 4
				},
				{
					"attributes": {
						"POSITION": 0,
						"NORMAL": 1,
						"TEXCOORD_0": 2,
						"TANGENT": 3
					},
					"indices": 5,
					"material": 1,
					"mode": 4
				}
			]
		}
	],
	"nodes": [
		{
			"name": "UnityGlTF_root",
			"children": [
				1
			]
		},
		{
			"name": "node_CA_Logo_Art",
			"mesh": 0,
			"matrix": [1, 0, 0, 0, 0, 1, 0, 0, 0, 0, 1, 0, 0, 0, 0, 1]
		}
	],
	"scenes": [
		{
			"name":"defaultScene",
			"nodes": [
				0
			]
		}
	],
	"scene": 0
}