{
	"asset": {
		"generator": "Unity 2020.3.11f1",
		"extras": {
			"exporterVersion" : "2.2.1"
		},
		"version": "2.0"
	},
	"accessors": [
		{
			"bufferView": 2,
			"byteOffset": 0,
			"componentType": 5126,
			"count": 1222,
			"max": [ -8.907255, 56.06203, -17.11593 ],
			"min": [ -46.66421, 27.46231, -45.37219 ],
			"type": "VEC3"
		},
		{
			"bufferView": 2,
			"byteOffset": 14664,
			"componentType": 5126,
			"count": 1222,
			"max": [ 0.9995475, 0.03651789, 0.9997438 ],
			"min": [ -0.9987255, -1, -0.9991164 ],
			"type": "VEC3"
		},
		{
			"bufferView": 1,
			"byteOffset": 0,
			"componentType": 5126,
			"count": 1222,
			"max": [ 3.092293, 3.449975 ],
			"min": [ -2.899135, -3.111876 ],
			"type": "VEC2"
		},
		{
			"bufferView": 3,
			"byteOffset": 0,
			"componentType": 5126,
			"count": 1222,
			"max": [ 0.888208, 0.8111163, 1, 1 ],
			"min": [ -1, -0.998503, -0.8416544, -1 ],
			"type": "VEC4"
		},
		{
			"bufferView": 0,
			"byteOffset": 0,
			"componentType": 5123,
			"count": 4425,
			"max": [ 1221 ],
			"min": [ 0 ],
			"type": "SCALAR"
		}
	],
	"buffers": [
		{
			"byteLength": 67506,
			"uri": "entity35516.bin"
		}
	],
	"bufferViews": [
		{
			"buffer": 0,
			"byteLength": 8850,
			"target": 34963,
			"byteOffset": 58656
		},
		{
			"buffer": 0,
			"byteLength": 9776,
			"target": 34962,
			"byteStride": 8,
			"byteOffset": 0
		},
		{
			"buffer": 0,
			"byteLength": 29328,
			"target": 34962,
			"byteStride": 12,
			"byteOffset": 9776
		},
		{
			"buffer": 0,
			"byteLength": 19552,
			"target": 34962,
			"byteStride": 16,
			"byteOffset": 39104
		}
	],
	"images": [
		{
			"uri": "Assets/Visuals/Materials/Textures/ChipLines.png"
		}
	],
	"materials": [
		{
			"pbrMetallicRoughness": {
				"baseColorTexture" : {
					"index" : 0,
					"texCoord" : 0
				},
				"baseColorFactor": [1, 0.01415092, 0.9208877, 1],
				"metallicFactor": 0,
				"roughnessFactor": 0.5
			},
			"alphaMode": "BLEND",
			"alphaCutoff": 0.5,
			"emissiveTexture" : {
				"index" : 0,
				"texCoord" : 0
			},
			"emissiveFactor": [1, 0.6839622, 0.9543501],
			"doubleSided": false,
			"name": "DomeChips_Mat"
		}
	],
	"meshes": [
		{
			"name": "mesh_DomeExtra_Outline_22648DomeExtra_Outline",
			"primitives": [
				{
					"attributes": {
						"POSITION": 0,
						"NORMAL": 1,
						"TEXCOORD_0": 2,
						"TANGENT": 3
					},
					"indices": 4,
					"material": 0,
					"mode": 4
				}
			]
		}
	],
	"nodes": [
		{
			"name": "UnityGlTF_root",
			"children": [
				1
			]
		},
		{
			"name": "node_DomeExtra_Outline",
			"mesh": 0,
			"matrix": [1, 0, 0, 0, 0, 1, 0, 0, 0, 0, 1, 0, 0, 0, 0, 1]
		}
	],
	"samplers": [
		{
			"magFilter": 9729,
			"minFilter": 9985,
			"wrapS": 10497,
			"wrapT": 10497
		}
	],
	"scenes": [
		{
			"name":"defaultScene",
			"nodes": [
				0
			]
		}
	],
	"scene": 0,
	"textures": [
		{
			"sampler": 0,
			"source": 0
		}
	]
}