{
	"asset": {
		"generator": "Unity 2020.3.11f1",
		"extras": {
			"exporterVersion" : "2.2.1"
		},
		"version": "2.0"
	},
	"accessors": [
		{
			"bufferView": 2,
			"byteOffset": 0,
			"componentType": 5126,
			"count": 7,
			"max": [ 29.50562, -0.0065625, 34.07002 ],
			"min": [ -29.50562, -0.006638403, -34.07001 ],
			"type": "VEC3"
		},
		{
			"bufferView": 2,
			"byteOffset": 84,
			"componentType": 5126,
			"count": 7,
			"max": [ 1.413276E-07, 1, 0 ],
			"min": [ -1.413276E-07, 1, -3.261137E-07 ],
			"type": "VEC3"
		},
		{
			"bufferView": 1,
			"byteOffset": 0,
			"componentType": 5126,
			"count": 7,
			"max": [ 6.869779, 7.930784 ],
			"min": [ -6.000698, -6.930784 ],
			"type": "VEC2"
		},
		{
			"bufferView": 3,
			"byteOffset": 0,
			"componentType": 5126,
			"count": 7,
			"max": [ 1, 0, 0, 1 ],
			"min": [ 1, 0, 0, 1 ],
			"type": "VEC4"
		},
		{
			"bufferView": 0,
			"byteOffset": 0,
			"componentType": 5123,
			"count": 18,
			"max": [ 6 ],
			"min": [ 0 ],
			"type": "SCALAR"
		}
	],
	"buffers": [
		{
			"byteLength": 372,
			"uri": "entity58586.bin"
		}
	],
	"bufferViews": [
		{
			"buffer": 0,
			"byteLength": 36,
			"target": 34963,
			"byteOffset": 336
		},
		{
			"buffer": 0,
			"byteLength": 56,
			"target": 34962,
			"byteStride": 8,
			"byteOffset": 0
		},
		{
			"buffer": 0,
			"byteLength": 168,
			"target": 34962,
			"byteStride": 12,
			"byteOffset": 56
		},
		{
			"buffer": 0,
			"byteLength": 112,
			"target": 34962,
			"byteStride": 16,
			"byteOffset": 224
		}
	],
	"images": [
		{
			"uri": "Assets/Visuals/Materials/Textures/Tex_Cable_Albedo.png"
		}
	],
	"materials": [
		{
			"pbrMetallicRoughness": {
				"baseColorTexture" : {
					"index" : 0,
					"texCoord" : 0
				},
				"baseColorFactor": [1, 1, 1, 1],
				"metallicFactor": 0,
				"roughnessFactor": 0.5
			},
			"emissiveFactor": [0, 0, 0],
			"doubleSided": false,
			"name": "Tubes_Mat"
		}
	],
	"meshes": [
		{
			"name": "mesh_Platform_tubes_33678Platform_tubes",
			"primitives": [
				{
					"attributes": {
						"POSITION": 0,
						"NORMAL": 1,
						"TEXCOORD_0": 2,
						"TANGENT": 3
					},
					"indices": 4,
					"material": 0,
					"mode": 4
				}
			]
		}
	],
	"nodes": [
		{
			"name": "UnityGlTF_root",
			"children": [
				1
			]
		},
		{
			"name": "node_Platform_tubes",
			"mesh": 0,
			"matrix": [1, 0, 0, 0, 0, 1, 0, 0, 0, 0, 1, 0, 0, 0, 0, 1]
		}
	],
	"samplers": [
		{
			"magFilter": 9729,
			"minFilter": 9985,
			"wrapS": 10497,
			"wrapT": 10497
		}
	],
	"scenes": [
		{
			"name":"defaultScene",
			"nodes": [
				0
			]
		}
	],
	"scene": 0,
	"textures": [
		{
			"sampler": 0,
			"source": 0
		}
	]
}