{
	"asset": {
		"generator": "Unity 2020.3.11f1",
		"extras": {
			"exporterVersion" : "2.2.1"
		},
		"version": "2.0"
	},
	"accessors": [
		{
			"bufferView": 2,
			"byteOffset": 0,
			"componentType": 5126,
			"count": 1001,
			"max": [ 29.30441, 95.75565, 25.28358 ],
			"min": [ -37.21314, 37.52687, -33.56387 ],
			"type": "VEC3"
		},
		{
			"bufferView": 2,
			"byteOffset": 12012,
			"componentType": 5126,
			"count": 1001,
			"max": [ 0.9990006, 5.096624E-07, 0.9987496 ],
			"min": [ -0.999842, -1, -0.998798 ],
			"type": "VEC3"
		},
		{
			"bufferView": 1,
			"byteOffset": 0,
			"componentType": 5126,
			"count": 1001,
			"max": [ 2.680923, 2.015327 ],
			"min": [ -2.148202, -1.60695 ],
			"type": "VEC2"
		},
		{
			"bufferView": 3,
			"byteOffset": 0,
			"componentType": 5126,
			"count": 1001,
			"max": [ 0.8519822, 0.9891237, 0.9999968, 1 ],
			"min": [ -1, -0.9949195, -0.7553092, -1 ],
			"type": "VEC4"
		},
		{
			"bufferView": 0,
			"byteOffset": 0,
			"componentType": 5123,
			"count": 3669,
			"max": [ 1000 ],
			"min": [ 0 ],
			"type": "SCALAR"
		}
	],
	"buffers": [
		{
			"byteLength": 55386,
			"uri": "entity59420.bin"
		}
	],
	"bufferViews": [
		{
			"buffer": 0,
			"byteLength": 7338,
			"target": 34963,
			"byteOffset": 48048
		},
		{
			"buffer": 0,
			"byteLength": 8008,
			"target": 34962,
			"byteStride": 8,
			"byteOffset": 0
		},
		{
			"buffer": 0,
			"byteLength": 24024,
			"target": 34962,
			"byteStride": 12,
			"byteOffset": 8008
		},
		{
			"buffer": 0,
			"byteLength": 16016,
			"target": 34962,
			"byteStride": 16,
			"byteOffset": 32032
		}
	],
	"images": [
		{
			"uri": "Assets/Visuals/Materials/Textures/ChipLines.png"
		}
	],
	"materials": [
		{
			"pbrMetallicRoughness": {
				"baseColorTexture" : {
					"index" : 0,
					"texCoord" : 0
				},
				"baseColorFactor": [0.03301889, 0.9819842, 1, 0.3764706],
				"metallicFactor": 0,
				"roughnessFactor": 0.5
			},
			"alphaMode": "BLEND",
			"alphaCutoff": 0.5,
			"emissiveTexture" : {
				"index" : 0,
				"texCoord" : 0
			},
			"emissiveFactor": [0.07075468, 0.63724, 1],
			"doubleSided": false,
			"name": "VIP_DomeChips_Mat"
		}
	],
	"meshes": [
		{
			"name": "mesh_VIP_Domes_Outline_33806VIP_Domes_Outline",
			"primitives": [
				{
					"attributes": {
						"POSITION": 0,
						"NORMAL": 1,
						"TEXCOORD_0": 2,
						"TANGENT": 3
					},
					"indices": 4,
					"material": 0,
					"mode": 4
				}
			]
		}
	],
	"nodes": [
		{
			"name": "UnityGlTF_root",
			"children": [
				1
			]
		},
		{
			"name": "node_VIP_Domes_Outline",
			"mesh": 0,
			"matrix": [1, 0, 0, 0, 0, 1, 0, 0, 0, 0, 1, 0, 0, 0, 0, 1]
		}
	],
	"samplers": [
		{
			"magFilter": 9729,
			"minFilter": 9985,
			"wrapS": 10497,
			"wrapT": 10497
		}
	],
	"scenes": [
		{
			"name":"defaultScene",
			"nodes": [
				0
			]
		}
	],
	"scene": 0,
	"textures": [
		{
			"sampler": 0,
			"source": 0
		}
	]
}