{
	"asset": {
		"generator": "Unity 2020.3.11f1",
		"extras": {
			"exporterVersion" : "2.2.1"
		},
		"version": "2.0"
	},
	"accessors": [
		{
			"bufferView": 2,
			"byteOffset": 0,
			"componentType": 5126,
			"count": 2947,
			"max": [ 27.40325, 73.05584, 22.9309 ],
			"min": [ -35.7365, 67.62383, -28.94435 ],
			"type": "VEC3"
		},
		{
			"bufferView": 2,
			"byteOffset": 35364,
			"componentType": 5126,
			"count": 2947,
			"max": [ 0.999998, 1, 0.999979 ],
			"min": [ -0.999979, -1, -0.999979 ],
			"type": "VEC3"
		},
		{
			"bufferView": 1,
			"byteOffset": 0,
			"componentType": 5126,
			"count": 2947,
			"max": [ 0.985899, 0.991225 ],
			"min": [ 0.01660365, 0.007479671 ],
			"type": "VEC2"
		},
		{
			"bufferView": 3,
			"byteOffset": 0,
			"componentType": 5126,
			"count": 2947,
			"max": [ 1, 1, 0.9999392, 1 ],
			"min": [ -0.9999992, -1, -0.9999413, 1 ],
			"type": "VEC4"
		},
		{
			"bufferView": 0,
			"byteOffset": 0,
			"componentType": 5123,
			"count": 3264,
			"max": [ 1471 ],
			"min": [ 0 ],
			"type": "SCALAR"
		},
		{
			"bufferView": 0,
			"byteOffset": 6528,
			"componentType": 5123,
			"count": 1632,
			"max": [ 2208 ],
			"min": [ 1472 ],
			"type": "SCALAR"
		},
		{
			"bufferView": 0,
			"byteOffset": 9792,
			"componentType": 5123,
			"count": 1632,
			"max": [ 2946 ],
			"min": [ 2209 ],
			"type": "SCALAR"
		},
		{
			"bufferView": 2,
			"byteOffset": 70728,
			"componentType": 5126,
			"count": 6574,
			"max": [ 26.18686, 71.26836, 21.84911 ],
			"min": [ -34.41665, 68.62144, -22.73829 ],
			"type": "VEC3"
		},
		{
			"bufferView": 2,
			"byteOffset": 149616,
			"componentType": 5126,
			"count": 6574,
			"max": [ 0.9999775, 1, 0.9999303 ],
			"min": [ -0.999931, -1, -0.9999303 ],
			"type": "VEC3"
		},
		{
			"bufferView": 1,
			"byteOffset": 23576,
			"componentType": 5126,
			"count": 6574,
			"max": [ 3.008075, 0.7661075 ],
			"min": [ -2.121009, 0.5483604 ],
			"type": "VEC2"
		},
		{
			"bufferView": 1,
			"byteOffset": 76168,
			"componentType": 5126,
			"count": 6574,
			"max": [ 0.535623, 0.7743638 ],
			"min": [ 0, 0 ],
			"type": "VEC2"
		},
		{
			"bufferView": 3,
			"byteOffset": 47152,
			"componentType": 5126,
			"count": 6574,
			"max": [ 1, 1, 0.9999429, 1 ],
			"min": [ -0.999931, -1, -0.9999748, -1 ],
			"type": "VEC4"
		},
		{
			"bufferView": 0,
			"byteOffset": 13056,
			"componentType": 5123,
			"count": 17136,
			"max": [ 6573 ],
			"min": [ 0 ],
			"type": "SCALAR"
		},
		{
			"bufferView": 2,
			"byteOffset": 228504,
			"componentType": 5126,
			"count": 1143,
			"max": [ 31.36974, 0.5909901, 26.04652 ],
			"min": [ -31.53712, -24.82393, -26.22328 ],
			"type": "VEC3"
		},
		{
			"bufferView": 2,
			"byteOffset": 242220,
			"componentType": 5126,
			"count": 1143,
			"max": [ 0.999979, 1, 0.9999943 ],
			"min": [ -0.999979, -1, -0.999979 ],
			"type": "VEC3"
		},
		{
			"bufferView": 1,
			"byteOffset": 128760,
			"componentType": 5126,
			"count": 1143,
			"max": [ 1, 1 ],
			"min": [ 0, 0 ],
			"type": "VEC2"
		},
		{
			"bufferView": 3,
			"byteOffset": 152336,
			"componentType": 5126,
			"count": 1143,
			"max": [ 1, 0.008550082, 0.999979, 1 ],
			"min": [ -1, -0.1471395, -0.999979, -1 ],
			"type": "VEC4"
		},
		{
			"bufferView": 0,
			"byteOffset": 47328,
			"componentType": 5123,
			"count": 2004,
			"max": [ 1142 ],
			"min": [ 0 ],
			"type": "SCALAR"
		},
		{
			"bufferView": 2,
			"byteOffset": 255936,
			"componentType": 5126,
			"count": 421,
			"max": [ 24.02316, 71.21632, 18.61171 ],
			"min": [ -32.17619, 67.31408, -18.96342 ],
			"type": "VEC3"
		},
		{
			"bufferView": 2,
			"byteOffset": 260988,
			"componentType": 5126,
			"count": 421,
			"max": [ 0.9916202, 0.9999912, 0.9744316 ],
			"min": [ -0.9994032, -0.7654918, -0.9994946 ],
			"type": "VEC3"
		},
		{
			"bufferView": 1,
			"byteOffset": 137904,
			"componentType": 5126,
			"count": 421,
			"max": [ 0.9513666, 0.9811463 ],
			"min": [ 0.005859375, 0.02684716 ],
			"type": "VEC2"
		},
		{
			"bufferView": 3,
			"byteOffset": 170624,
			"componentType": 5126,
			"count": 421,
			"max": [ 1, 0.9999638, 0.963807, 1 ],
			"min": [ -0.9933728, -0.9999641, -0.9791176, -1 ],
			"type": "VEC4"
		},
		{
			"bufferView": 0,
			"byteOffset": 51336,
			"componentType": 5123,
			"count": 1533,
			"max": [ 420 ],
			"min": [ 0 ],
			"type": "SCALAR"
		}
	],
	"buffers": [
		{
			"byteLength": 639074,
			"uri": "entity55210.bin"
		}
	],
	"bufferViews": [
		{
			"buffer": 0,
			"byteLength": 54402,
			"target": 34963,
			"byteOffset": 584672
		},
		{
			"buffer": 0,
			"byteLength": 141272,
			"target": 34962,
			"byteStride": 8,
			"byteOffset": 0
		},
		{
			"buffer": 0,
			"byteLength": 266040,
			"target": 34962,
			"byteStride": 12,
			"byteOffset": 141272
		},
		{
			"buffer": 0,
			"byteLength": 177360,
			"target": 34962,
			"byteStride": 16,
			"byteOffset": 407312
		}
	],
	"images": [
		{
			"uri": "Assets/Visuals/Materials/Textures/Hexagon_VIP_Albedo.png"
		},
		{
			"uri": "Assets/Visuals/Materials/Textures/Hexagon_L_Emissive.jpg"
		},
		{
			"uri": "Assets/Visuals/Materials/Textures/Hexagon_VIP_02_Albedo.png"
		},
		{
			"uri": "Assets/Visuals/Materials/Textures/Hexagon_VIP_01_Albedo.png"
		},
		{
			"uri": "Assets/Visuals/Materials/Textures/Atlas01_Albedo.png"
		},
		{
			"uri": "Assets/Visuals/Materials/Textures/Zen_Garden_albedo.png"
		}
	],
	"materials": [
		{
			"pbrMetallicRoughness": {
				"baseColorTexture" : {
					"index" : 0,
					"texCoord" : 0
				},
				"baseColorFactor": [1, 1, 1, 1],
				"metallicFactor": 0,
				"roughnessFactor": 1
			},
			"emissiveTexture" : {
				"index" : 1,
				"texCoord" : 0
			},
			"emissiveFactor": [1, 1, 1],
			"doubleSided": false,
			"name": "Vip_Mat"
		},
		{
			"pbrMetallicRoughness": {
				"baseColorTexture" : {
					"index" : 2,
					"texCoord" : 0
				},
				"baseColorFactor": [1, 1, 1, 1],
				"metallicFactor": 0,
				"roughnessFactor": 1
			},
			"emissiveTexture" : {
				"index" : 1,
				"texCoord" : 0
			},
			"emissiveFactor": [1, 1, 1],
			"doubleSided": false,
			"name": "Vip_02_Mat"
		},
		{
			"pbrMetallicRoughness": {
				"baseColorTexture" : {
					"index" : 3,
					"texCoord" : 0
				},
				"baseColorFactor": [1, 1, 1, 1],
				"metallicFactor": 0,
				"roughnessFactor": 1
			},
			"emissiveTexture" : {
				"index" : 1,
				"texCoord" : 0
			},
			"emissiveFactor": [1, 1, 1],
			"doubleSided": false,
			"name": "Vip_01_Mat"
		},
		{
			"pbrMetallicRoughness": {
				"baseColorTexture" : {
					"index" : 4,
					"texCoord" : 0
				},
				"baseColorFactor": [1, 1, 1, 1],
				"metallicFactor": 0,
				"roughnessFactor": 1
			},
			"emissiveFactor": [0, 0, 0],
			"doubleSided": false,
			"name": "Atlas01_Mat"
		},
		{
			"pbrMetallicRoughness": {
				"baseColorFactor": [1, 0.004716992, 0.004716992, 1],
				"metallicFactor": 0,
				"roughnessFactor": 0.5
			},
			"emissiveFactor": [0, 0, 0],
			"doubleSided": false,
			"name": "Collider_Mat"
		},
		{
			"pbrMetallicRoughness": {
				"baseColorTexture" : {
					"index" : 5,
					"texCoord" : 0
				},
				"baseColorFactor": [1, 1, 1, 1],
				"metallicFactor": 0,
				"roughnessFactor": 1
			},
			"emissiveFactor": [0, 0, 0],
			"doubleSided": false,
			"name": "Zen_Garden_Mat"
		}
	],
	"meshes": [
		{
			"name": "mesh_Vip_Floor_Art_33346VIP_Floor_Art",
			"primitives": [
				{
					"attributes": {
						"POSITION": 0,
						"NORMAL": 1,
						"TEXCOORD_0": 2,
						"TANGENT": 3
					},
					"indices": 4,
					"material": 0,
					"mode": 4
				},
				{
					"attributes": {
						"POSITION": 0,
						"NORMAL": 1,
						"TEXCOORD_0": 2,
						"TANGENT": 3
					},
					"indices": 5,
					"material": 1,
					"mode": 4
				},
				{
					"attributes": {
						"POSITION": 0,
						"NORMAL": 1,
						"TEXCOORD_0": 2,
						"TANGENT": 3
					},
					"indices": 6,
					"material": 2,
					"mode": 4
				}
			]
		},
		{
			"name": "mesh_Vip_Barrier_33366Vip_Barrier",
			"primitives": [
				{
					"attributes": {
						"POSITION": 7,
						"NORMAL": 8,
						"TEXCOORD_0": 9,
						"TEXCOORD_1": 10,
						"TANGENT": 11
					},
					"indices": 12,
					"material": 3,
					"mode": 4
				}
			]
		},
		{
			"name": "mesh_VIP_Floor_collider_33362VIP_Floor_collider",
			"primitives": [
				{
					"attributes": {
						"POSITION": 13,
						"NORMAL": 14,
						"TEXCOORD_0": 15,
						"TANGENT": 16
					},
					"indices": 17,
					"material": 4,
					"mode": 4
				}
			]
		},
		{
			"name": "mesh_Vip_Zen_Art_33368Vip_Zen_Art",
			"primitives": [
				{
					"attributes": {
						"POSITION": 18,
						"NORMAL": 19,
						"TEXCOORD_0": 20,
						"TANGENT": 21
					},
					"indices": 22,
					"material": 5,
					"mode": 4
				}
			]
		}
	],
	"nodes": [
		{
			"name": "UnityGlTF_root",
			"children": [
				1
			]
		},
		{
			"name": "node_VIP_Floor_Art",
			"mesh": 0,
			"children": [
				2,
				3,
				4
			],
			"matrix": [1, 0, 0, 0, 0, 1, 0, 0, 0, 0, 1, 0, 0, 0, 0, 1]
		},
		{
			"name": "node_Vip_Barrier",
			"mesh": 1
		},
		{
			"name": "node_VIP_Floor_collider",
			"mesh": 2,
			"translation": [ -4.032123, 92.57668, -2.948766]
		},
		{
			"name": "node_Vip_Zen_Art",
			"mesh": 3
		}
	],
	"samplers": [
		{
			"magFilter": 9729,
			"minFilter": 9985,
			"wrapS": 10497,
			"wrapT": 10497
		}
	],
	"scenes": [
		{
			"name":"defaultScene",
			"nodes": [
				0
			]
		}
	],
	"scene": 0,
	"textures": [
		{
			"sampler": 0,
			"source": 0
		},
		{
			"sampler": 0,
			"source": 1
		},
		{
			"sampler": 0,
			"source": 2
		},
		{
			"sampler": 0,
			"source": 3
		},
		{
			"sampler": 0,
			"source": 4
		},
		{
			"sampler": 0,
			"source": 5
		}
	]
}