{
	"asset": {
		"generator": "Unity 2020.3.11f1",
		"extras": {
			"exporterVersion" : "2.2.1"
		},
		"version": "2.0"
	},
	"accessors": [
		{
			"bufferView": 2,
			"byteOffset": 0,
			"componentType": 5126,
			"count": 1420,
			"max": [ 29.66155, 6.528183, 27.11279 ],
			"min": [ -29.66155, 1.753376, -27.11279 ],
			"type": "VEC3"
		},
		{
			"bufferView": 2,
			"byteOffset": 17040,
			"componentType": 5126,
			"count": 1420,
			"max": [ 1, 1, 1 ],
			"min": [ -1, -1, -1 ],
			"type": "VEC3"
		},
		{
			"bufferView": 1,
			"byteOffset": 0,
			"componentType": 5126,
			"count": 1420,
			"max": [ 0.7101915, 0.9997836 ],
			"min": [ 0.0002163053, 0.0002163053 ],
			"type": "VEC2"
		},
		{
			"bufferView": 3,
			"byteOffset": 0,
			"componentType": 5126,
			"count": 1420,
			"max": [ 1, 0.9608766, 1, 1 ],
			"min": [ -1, -0.9608669, -1, -1 ],
			"type": "VEC4"
		},
		{
			"bufferView": 0,
			"byteOffset": 0,
			"componentType": 5123,
			"count": 2640,
			"max": [ 1419 ],
			"min": [ 0 ],
			"type": "SCALAR"
		}
	],
	"buffers": [
		{
			"byteLength": 73440,
			"uri": "entity37836.bin"
		}
	],
	"bufferViews": [
		{
			"buffer": 0,
			"byteLength": 5280,
			"target": 34963,
			"byteOffset": 68160
		},
		{
			"buffer": 0,
			"byteLength": 11360,
			"target": 34962,
			"byteStride": 8,
			"byteOffset": 0
		},
		{
			"buffer": 0,
			"byteLength": 34080,
			"target": 34962,
			"byteStride": 12,
			"byteOffset": 11360
		},
		{
			"buffer": 0,
			"byteLength": 22720,
			"target": 34962,
			"byteStride": 16,
			"byteOffset": 45440
		}
	],
	"images": [
		{
			"uri": "Assets/Visuals/Materials/Textures/Entrance_Albedo.png"
		}
	],
	"materials": [
		{
			"pbrMetallicRoughness": {
				"baseColorTexture" : {
					"index" : 0,
					"texCoord" : 0
				},
				"baseColorFactor": [1, 1, 1, 1],
				"metallicFactor": 0,
				"roughnessFactor": 0.83
			},
			"emissiveTexture" : {
				"index" : 0,
				"texCoord" : 0
			},
			"emissiveFactor": [1, 1, 1],
			"doubleSided": false,
			"name": "EntranceDoor_Mat"
		}
	],
	"meshes": [
		{
			"name": "mesh_EntranceDoor_23052EntranceDoor_Art",
			"primitives": [
				{
					"attributes": {
						"POSITION": 0,
						"NORMAL": 1,
						"TEXCOORD_0": 2,
						"TANGENT": 3
					},
					"indices": 4,
					"material": 0,
					"mode": 4
				}
			]
		}
	],
	"nodes": [
		{
			"name": "UnityGlTF_root",
			"children": [
				1
			]
		},
		{
			"name": "node_EntranceDoor_Art",
			"mesh": 0,
			"matrix": [1, 0, 0, 0, 0, 1, 0, 0, 0, 0, 1, 0, 0, 0, 0, 1]
		}
	],
	"samplers": [
		{
			"magFilter": 9729,
			"minFilter": 9985,
			"wrapS": 10497,
			"wrapT": 10497
		}
	],
	"scenes": [
		{
			"name":"defaultScene",
			"nodes": [
				0
			]
		}
	],
	"scene": 0,
	"textures": [
		{
			"sampler": 0,
			"source": 0
		}
	]
}