{
	"asset": {
		"generator": "Unity 2020.3.11f1",
		"extras": {
			"exporterVersion" : "2.2.1"
		},
		"version": "2.0"
	},
	"accessors": [
		{
			"bufferView": 2,
			"byteOffset": 0,
			"componentType": 5126,
			"count": 26,
			"max": [ -0.1821799, -1.031286, 1.339803 ],
			"min": [ -0.1843633, -1.257602, 0.9606321 ],
			"type": "VEC3"
		},
		{
			"bufferView": 2,
			"byteOffset": 312,
			"componentType": 5126,
			"count": 26,
			"max": [ 0.1827325, 0.9421038, 0.99383 ],
			"min": [ -1, -0.9511861, -0.2838694 ],
			"type": "VEC3"
		},
		{
			"bufferView": 1,
			"byteOffset": 0,
			"componentType": 5126,
			"count": 26,
			"max": [ 0.4576069, 0.4951187 ],
			"min": [ 0.0001679297, 0.1869319 ],
			"type": "VEC2"
		},
		{
			"bufferView": 3,
			"byteOffset": 0,
			"componentType": 5126,
			"count": 26,
			"max": [ 0.6240925, 0.949617, 0.8308306, 1 ],
			"min": [ -0.9937146, -0.9083042, -1, 1 ],
			"type": "VEC4"
		},
		{
			"bufferView": 0,
			"byteOffset": 0,
			"componentType": 5123,
			"count": 54,
			"max": [ 25 ],
			"min": [ 0 ],
			"type": "SCALAR"
		}
	],
	"buffers": [
		{
			"byteLength": 1356,
			"uri": "entity28114n.bin"
		}
	],
	"bufferViews": [
		{
			"buffer": 0,
			"byteLength": 108,
			"target": 34963,
			"byteOffset": 1248
		},
		{
			"buffer": 0,
			"byteLength": 208,
			"target": 34962,
			"byteStride": 8,
			"byteOffset": 0
		},
		{
			"buffer": 0,
			"byteLength": 624,
			"target": 34962,
			"byteStride": 12,
			"byteOffset": 208
		},
		{
			"buffer": 0,
			"byteLength": 416,
			"target": 34962,
			"byteStride": 16,
			"byteOffset": 832
		}
	],
	"images": [
		{
			"uri": "Assets/Visuals/Materials/Textures/Teleport_Albedo.png"
		}
	],
	"materials": [
		{
			"pbrMetallicRoughness": {
				"baseColorTexture" : {
					"index" : 0,
					"texCoord" : 0
				},
				"baseColorFactor": [1, 1, 1, 1],
				"metallicFactor": 0,
				"roughnessFactor": 1
			},
			"emissiveFactor": [0, 0, 0],
			"doubleSided": false,
			"name": "Signbook_Mat"
		}
	],
	"meshes": [
		{
			"name": "mesh_Signbook_ArrowRight_34766Signbook_ArrowRight_Art",
			"primitives": [
				{
					"attributes": {
						"POSITION": 0,
						"NORMAL": 1,
						"TEXCOORD_0": 2,
						"TANGENT": 3
					},
					"indices": 4,
					"material": 0,
					"mode": 4
				}
			]
		}
	],
	"nodes": [
		{
			"name": "UnityGlTF_root",
			"children": [
				1
			]
		},
		{
			"name": "node_Signbook_ArrowRight_Art",
			"mesh": 0,
			"matrix": [1, 0, 0, 0, 0, 1, 0, 0, 0, 0, 1, 0, 0, 0, 0, 1]
		}
	],
	"samplers": [
		{
			"magFilter": 9729,
			"minFilter": 9985,
			"wrapS": 10497,
			"wrapT": 10497
		}
	],
	"scenes": [
		{
			"name":"defaultScene",
			"nodes": [
				0
			]
		}
	],
	"scene": 0,
	"textures": [
		{
			"sampler": 0,
			"source": 0
		}
	]
}