{
	"asset": {
		"generator": "Unity 2020.3.11f1",
		"extras": {
			"exporterVersion" : "2.2.1"
		},
		"version": "2.0"
	},
	"accessors": [
		{
			"bufferView": 3,
			"byteOffset": 0,
			"componentType": 5126,
			"count": 3,
			"max": [ 7.506162E-05, 0, 7.506162E-05 ],
			"min": [ -7.506162E-05, 0, -7.506162E-05 ],
			"type": "VEC3"
		},
		{
			"bufferView": 3,
			"byteOffset": 36,
			"componentType": 5126,
			"count": 3,
			"max": [ 0, 1, 0 ],
			"min": [ 0, 1, 0 ],
			"type": "VEC3"
		},
		{
			"bufferView": 2,
			"byteOffset": 0,
			"componentType": 5126,
			"count": 3,
			"max": [ 1, 1 ],
			"min": [ 0, 0 ],
			"type": "VEC2"
		},
		{
			"bufferView": 4,
			"byteOffset": 0,
			"componentType": 5126,
			"count": 3,
			"max": [ -1, 0, 0, 1 ],
			"min": [ -1, 0, 0, 1 ],
			"type": "VEC4"
		},
		{
			"bufferView": 0,
			"byteOffset": 0,
			"componentType": 5123,
			"count": 3,
			"max": [ 2 ],
			"min": [ 0 ],
			"type": "SCALAR"
		},
		{
			"bufferView": 1,
			"byteOffset": 0,
			"componentType": 5126,
			"count": 921,
			"max": [ 30.67499 ],
			"min": [ 0 ],
			"type": "SCALAR"
		},
		{
			"bufferView": 5,
			"byteOffset": 0,
			"componentType": 5126,
			"count": 921,
			"max": [ 0, 0, 0 ],
			"min": [ 0, -2.261084, 0 ],
			"type": "VEC3"
		},
		{
			"bufferView": 6,
			"byteOffset": 0,
			"componentType": 5126,
			"count": 921,
			"max": [ 0, 0, 0, -1 ],
			"min": [ 0, 0, 0, -1 ],
			"type": "VEC4"
		},
		{
			"bufferView": 5,
			"byteOffset": 11052,
			"componentType": 5126,
			"count": 921,
			"max": [ 1.047241, 1.047241, 1.047241 ],
			"min": [ 0, 0, 0 ],
			"type": "VEC3"
		},
		{
			"bufferView": 1,
			"byteOffset": 3684,
			"componentType": 5126,
			"count": 921,
			"max": [ 30.67499 ],
			"min": [ 0 ],
			"type": "SCALAR"
		},
		{
			"bufferView": 5,
			"byteOffset": 22104,
			"componentType": 5126,
			"count": 921,
			"max": [ 0, 0, 0 ],
			"min": [ 0, -2.042755, 0 ],
			"type": "VEC3"
		},
		{
			"bufferView": 6,
			"byteOffset": 14736,
			"componentType": 5126,
			"count": 921,
			"max": [ 0, 0, 0, -1 ],
			"min": [ 0, 0, 0, -1 ],
			"type": "VEC4"
		},
		{
			"bufferView": 5,
			"byteOffset": 33156,
			"componentType": 5126,
			"count": 921,
			"max": [ 1.015974, 1.015974, 1.015974 ],
			"min": [ 1, 1, 1 ],
			"type": "VEC3"
		},
		{
			"bufferView": 1,
			"byteOffset": 7368,
			"componentType": 5126,
			"count": 921,
			"max": [ 30.67499 ],
			"min": [ 0 ],
			"type": "SCALAR"
		},
		{
			"bufferView": 5,
			"byteOffset": 44208,
			"componentType": 5126,
			"count": 921,
			"max": [ 0.3899559, -0.08408673, -0.1524473 ],
			"min": [ 0.3899559, -2.027246, -0.1524473 ],
			"type": "VEC3"
		},
		{
			"bufferView": 6,
			"byteOffset": 29472,
			"componentType": 5126,
			"count": 921,
			"max": [ 0, 0, 0, -1 ],
			"min": [ 0, 0, 0, -1 ],
			"type": "VEC4"
		},
		{
			"bufferView": 5,
			"byteOffset": 55260,
			"componentType": 5126,
			"count": 921,
			"max": [ 1.047763, 1.047763, 1.047763 ],
			"min": [ 0, 0, 0 ],
			"type": "VEC3"
		},
		{
			"bufferView": 1,
			"byteOffset": 11052,
			"componentType": 5126,
			"count": 921,
			"max": [ 30.67499 ],
			"min": [ 0 ],
			"type": "SCALAR"
		},
		{
			"bufferView": 5,
			"byteOffset": 66312,
			"componentType": 5126,
			"count": 921,
			"max": [ 0, 0, 0 ],
			"min": [ 0, -2.341733, 0 ],
			"type": "VEC3"
		},
		{
			"bufferView": 6,
			"byteOffset": 44208,
			"componentType": 5126,
			"count": 921,
			"max": [ 0, 0, 0, -1 ],
			"min": [ 0, 0, 0, -1 ],
			"type": "VEC4"
		},
		{
			"bufferView": 5,
			"byteOffset": 77364,
			"componentType": 5126,
			"count": 921,
			"max": [ 1.065927, 1.065927, 1.065927 ],
			"min": [ 0, 0, 0 ],
			"type": "VEC3"
		},
		{
			"bufferView": 1,
			"byteOffset": 14736,
			"componentType": 5126,
			"count": 921,
			"max": [ 30.67499 ],
			"min": [ 0 ],
			"type": "SCALAR"
		},
		{
			"bufferView": 5,
			"byteOffset": 88416,
			"componentType": 5126,
			"count": 921,
			"max": [ -0.3068839, 0, -0.6755379 ],
			"min": [ -0.3068839, -2.137444, -0.6755379 ],
			"type": "VEC3"
		},
		{
			"bufferView": 6,
			"byteOffset": 58944,
			"componentType": 5126,
			"count": 921,
			"max": [ 0, 0, 0, -1 ],
			"min": [ 0, 0, 0, -1 ],
			"type": "VEC4"
		},
		{
			"bufferView": 5,
			"byteOffset": 99468,
			"componentType": 5126,
			"count": 921,
			"max": [ 1.071479, 1.071479, 1.071479 ],
			"min": [ 0, 0, 0 ],
			"type": "VEC3"
		},
		{
			"bufferView": 3,
			"byteOffset": 72,
			"componentType": 5126,
			"count": 6,
			"max": [ -0.3682373, 3.335826, 0.5061582 ],
			"min": [ -0.5064942, 3.221779, 0.3770849 ],
			"type": "VEC3"
		},
		{
			"bufferView": 3,
			"byteOffset": 144,
			"componentType": 5126,
			"count": 6,
			"max": [ 0.2320312, 0.06915303, -0.02427721 ],
			"min": [ -0.0003350921, -0.9997051, -0.9702471 ],
			"type": "VEC3"
		},
		{
			"bufferView": 2,
			"byteOffset": 24,
			"componentType": 5126,
			"count": 6,
			"max": [ 0.8489891, 0.7268605 ],
			"min": [ 0.8489891, 0.7268605 ],
			"type": "VEC2"
		},
		{
			"bufferView": 4,
			"byteOffset": 48,
			"componentType": 5126,
			"count": 6,
			"max": [ 1, 0, 0, 1 ],
			"min": [ 1, 0, 0, 1 ],
			"type": "VEC4"
		},
		{
			"bufferView": 0,
			"byteOffset": 6,
			"componentType": 5123,
			"count": 6,
			"max": [ 5 ],
			"min": [ 0 ],
			"type": "SCALAR"
		},
		{
			"bufferView": 3,
			"byteOffset": 216,
			"componentType": 5126,
			"count": 6,
			"max": [ -0.3682373, 3.335826, 0.004817161 ],
			"min": [ -0.5064942, 3.221779, -0.1242561 ],
			"type": "VEC3"
		},
		{
			"bufferView": 3,
			"byteOffset": 288,
			"componentType": 5126,
			"count": 6,
			"max": [ 0.232031, 0.06915303, -0.02427721 ],
			"min": [ -0.0003351076, -0.9997051, -0.9702471 ],
			"type": "VEC3"
		},
		{
			"bufferView": 2,
			"byteOffset": 72,
			"componentType": 5126,
			"count": 6,
			"max": [ 0.8489891, 0.7268605 ],
			"min": [ 0.8489891, 0.7268605 ],
			"type": "VEC2"
		},
		{
			"bufferView": 4,
			"byteOffset": 144,
			"componentType": 5126,
			"count": 6,
			"max": [ 1, 0, 0, 1 ],
			"min": [ 1, 0, 0, 1 ],
			"type": "VEC4"
		},
		{
			"bufferView": 0,
			"byteOffset": 18,
			"componentType": 5123,
			"count": 6,
			"max": [ 5 ],
			"min": [ 0 ],
			"type": "SCALAR"
		},
		{
			"bufferView": 3,
			"byteOffset": 360,
			"componentType": 5126,
			"count": 6,
			"max": [ -0.3682373, 3.335826, 0.004817141 ],
			"min": [ -0.5064942, 3.221779, -0.1242561 ],
			"type": "VEC3"
		},
		{
			"bufferView": 3,
			"byteOffset": 432,
			"componentType": 5126,
			"count": 6,
			"max": [ 0.2320313, 0.0691531, -0.02427721 ],
			"min": [ -0.0003351061, -0.9997051, -0.9702471 ],
			"type": "VEC3"
		},
		{
			"bufferView": 2,
			"byteOffset": 120,
			"componentType": 5126,
			"count": 6,
			"max": [ 0.8489891, 0.7268605 ],
			"min": [ 0.8489891, 0.7268605 ],
			"type": "VEC2"
		},
		{
			"bufferView": 4,
			"byteOffset": 240,
			"componentType": 5126,
			"count": 6,
			"max": [ 1, 0, 0, 1 ],
			"min": [ 1, 0, 0, 1 ],
			"type": "VEC4"
		},
		{
			"bufferView": 0,
			"byteOffset": 30,
			"componentType": 5123,
			"count": 6,
			"max": [ 5 ],
			"min": [ 0 ],
			"type": "SCALAR"
		},
		{
			"bufferView": 3,
			"byteOffset": 504,
			"componentType": 5126,
			"count": 6,
			"max": [ 0.06999039, 3.336214, 0.2398743 ],
			"min": [ -0.06825375, 3.222156, 0.1109519 ],
			"type": "VEC3"
		},
		{
			"bufferView": 3,
			"byteOffset": 576,
			"componentType": 5126,
			"count": 6,
			"max": [ 0.2281607, 0.06850845, -0.02366663 ],
			"min": [ -0.0006729203, -0.9997197, -0.9712102 ],
			"type": "VEC3"
		},
		{
			"bufferView": 2,
			"byteOffset": 168,
			"componentType": 5126,
			"count": 6,
			"max": [ 0.8489891, 0.7268605 ],
			"min": [ 0.8489891, 0.7268605 ],
			"type": "VEC2"
		},
		{
			"bufferView": 4,
			"byteOffset": 336,
			"componentType": 5126,
			"count": 6,
			"max": [ 1, 0, 0, 1 ],
			"min": [ 1, 0, 0, 1 ],
			"type": "VEC4"
		},
		{
			"bufferView": 0,
			"byteOffset": 42,
			"componentType": 5123,
			"count": 6,
			"max": [ 5 ],
			"min": [ 0 ],
			"type": "SCALAR"
		},
		{
			"bufferView": 3,
			"byteOffset": 648,
			"componentType": 5126,
			"count": 6,
			"max": [ 0.06999039, 3.336214, 0.2398743 ],
			"min": [ -0.06825375, 3.222156, 0.1109519 ],
			"type": "VEC3"
		},
		{
			"bufferView": 3,
			"byteOffset": 720,
			"componentType": 5126,
			"count": 6,
			"max": [ 0.2281612, 0.06850854, -0.02366664 ],
			"min": [ -0.0006729114, -0.9997197, -0.9712101 ],
			"type": "VEC3"
		},
		{
			"bufferView": 2,
			"byteOffset": 216,
			"componentType": 5126,
			"count": 6,
			"max": [ 0.8489891, 0.7268605 ],
			"min": [ 0.8489891, 0.7268605 ],
			"type": "VEC2"
		},
		{
			"bufferView": 4,
			"byteOffset": 432,
			"componentType": 5126,
			"count": 6,
			"max": [ 1, 0, 0, 1 ],
			"min": [ 1, 0, 0, 1 ],
			"type": "VEC4"
		},
		{
			"bufferView": 0,
			"byteOffset": 54,
			"componentType": 5123,
			"count": 6,
			"max": [ 5 ],
			"min": [ 0 ],
			"type": "SCALAR"
		}
	],
	"animations": [
		{
			"name": "Particle01_Art (15)",
			"channels": [
				{
					"sampler": 0,
					"target": {
						"node": 2,
						"path": "translation"
					}
				},
				{
					"sampler": 1,
					"target": {
						"node": 2,
						"path": "rotation"
					}
				},
				{
					"sampler": 2,
					"target": {
						"node": 2,
						"path": "scale"
					}
				},
				{
					"sampler": 3,
					"target": {
						"node": 3,
						"path": "translation"
					}
				},
				{
					"sampler": 4,
					"target": {
						"node": 3,
						"path": "rotation"
					}
				},
				{
					"sampler": 5,
					"target": {
						"node": 3,
						"path": "scale"
					}
				},
				{
					"sampler": 6,
					"target": {
						"node": 4,
						"path": "translation"
					}
				},
				{
					"sampler": 7,
					"target": {
						"node": 4,
						"path": "rotation"
					}
				},
				{
					"sampler": 8,
					"target": {
						"node": 4,
						"path": "scale"
					}
				},
				{
					"sampler": 9,
					"target": {
						"node": 5,
						"path": "translation"
					}
				},
				{
					"sampler": 10,
					"target": {
						"node": 5,
						"path": "rotation"
					}
				},
				{
					"sampler": 11,
					"target": {
						"node": 5,
						"path": "scale"
					}
				},
				{
					"sampler": 12,
					"target": {
						"node": 6,
						"path": "translation"
					}
				},
				{
					"sampler": 13,
					"target": {
						"node": 6,
						"path": "rotation"
					}
				},
				{
					"sampler": 14,
					"target": {
						"node": 6,
						"path": "scale"
					}
				}
			],
			"samplers": [
				{
					"input": 5,
					"interpolation": "LINEAR",
					"output": 6
				},
				{
					"input": 5,
					"interpolation": "LINEAR",
					"output": 7
				},
				{
					"input": 5,
					"interpolation": "LINEAR",
					"output": 8
				},
				{
					"input": 9,
					"interpolation": "LINEAR",
					"output": 10
				},
				{
					"input": 9,
					"interpolation": "LINEAR",
					"output": 11
				},
				{
					"input": 9,
					"interpolation": "LINEAR",
					"output": 12
				},
				{
					"input": 13,
					"interpolation": "LINEAR",
					"output": 14
				},
				{
					"input": 13,
					"interpolation": "LINEAR",
					"output": 15
				},
				{
					"input": 13,
					"interpolation": "LINEAR",
					"output": 16
				},
				{
					"input": 17,
					"interpolation": "LINEAR",
					"output": 18
				},
				{
					"input": 17,
					"interpolation": "LINEAR",
					"output": 19
				},
				{
					"input": 17,
					"interpolation": "LINEAR",
					"output": 20
				},
				{
					"input": 21,
					"interpolation": "LINEAR",
					"output": 22
				},
				{
					"input": 21,
					"interpolation": "LINEAR",
					"output": 23
				},
				{
					"input": 21,
					"interpolation": "LINEAR",
					"output": 24
				}
			]
		}
	],
	"buffers": [
		{
			"byteLength": 204270,
			"uri": "entity66412.bin"
		}
	],
	"bufferViews": [
		{
			"buffer": 0,
			"byteLength": 66,
			"target": 34963,
			"byteOffset": 20004
		},
		{
			"buffer": 0,
			"byteLength": 18420,
			"byteOffset": 0
		},
		{
			"buffer": 0,
			"byteLength": 264,
			"target": 34962,
			"byteStride": 8,
			"byteOffset": 18420
		},
		{
			"buffer": 0,
			"byteLength": 792,
			"target": 34962,
			"byteStride": 12,
			"byteOffset": 18684
		},
		{
			"buffer": 0,
			"byteLength": 528,
			"target": 34962,
			"byteStride": 16,
			"byteOffset": 19476
		},
		{
			"buffer": 0,
			"byteLength": 110520,
			"byteStride": 12,
			"byteOffset": 20070
		},
		{
			"buffer": 0,
			"byteLength": 73680,
			"byteStride": 16,
			"byteOffset": 130590
		}
	],
	"images": [
		{
			"uri": "Assets/Visuals/Materials/Textures/Altar_Albedo.png"
		}
	],
	"materials": [
		{
			"pbrMetallicRoughness": {
				"baseColorTexture" : {
					"index" : 0,
					"texCoord" : 0
				},
				"baseColorFactor": [1, 1, 1, 1],
				"metallicFactor": 0,
				"roughnessFactor": 0.5
			},
			"alphaMode": "BLEND",
			"alphaCutoff": 0.5,
			"emissiveTexture" : {
				"index" : 0,
				"texCoord" : 0
			},
			"emissiveFactor": [1, 1, 1],
			"doubleSided": true,
			"name": "Altar_Mat"
		},
		{
			"pbrMetallicRoughness": {
				"baseColorFactor": [1, 1, 1, 1],
				"metallicFactor": 0,
				"roughnessFactor": 0.5
			},
			"emissiveFactor": [1, 0.4292453, 0.7913262],
			"doubleSided": false,
			"name": "BioLights_Mat"
		}
	],
	"meshes": [
		{
			"name": "mesh_Particles01_Art_32778Particle01_Art (15)",
			"primitives": [
				{
					"attributes": {
						"POSITION": 0,
						"NORMAL": 1,
						"TEXCOORD_0": 2,
						"TANGENT": 3
					},
					"indices": 4,
					"material": 0,
					"mode": 4
				}
			]
		},
		{
			"name": "mesh_Particles01_32802Particles01",
			"primitives": [
				{
					"attributes": {
						"POSITION": 25,
						"NORMAL": 26,
						"TEXCOORD_0": 27,
						"TANGENT": 28
					},
					"indices": 29,
					"material": 1,
					"mode": 4
				}
			]
		},
		{
			"name": "mesh_Particles02_32806Particles02",
			"primitives": [
				{
					"attributes": {
						"POSITION": 30,
						"NORMAL": 31,
						"TEXCOORD_0": 32,
						"TANGENT": 33
					},
					"indices": 34,
					"material": 1,
					"mode": 4
				}
			]
		},
		{
			"name": "mesh_Particles03_32800Particles03",
			"primitives": [
				{
					"attributes": {
						"POSITION": 35,
						"NORMAL": 36,
						"TEXCOORD_0": 37,
						"TANGENT": 38
					},
					"indices": 39,
					"material": 1,
					"mode": 4
				}
			]
		},
		{
			"name": "mesh_Particles04_32798Particles04",
			"primitives": [
				{
					"attributes": {
						"POSITION": 40,
						"NORMAL": 41,
						"TEXCOORD_0": 42,
						"TANGENT": 43
					},
					"indices": 44,
					"material": 1,
					"mode": 4
				}
			]
		},
		{
			"name": "mesh_Particles05_32804Particles05",
			"primitives": [
				{
					"attributes": {
						"POSITION": 45,
						"NORMAL": 46,
						"TEXCOORD_0": 47,
						"TANGENT": 48
					},
					"indices": 49,
					"material": 1,
					"mode": 4
				}
			]
		}
	],
	"nodes": [
		{
			"name": "UnityGlTF_root",
			"children": [
				1
			]
		},
		{
			"name": "node_Particle01_Art (15)",
			"mesh": 0,
			"children": [
				2,
				3,
				4,
				5,
				6
			],
			"matrix": [1, 0, 0, 0, 0, 1, 0, 0, 0, 0, 1, 0, 0, 0, 0, 1]
		},
		{
			"name": "node_Particles01",
			"mesh": 1
		},
		{
			"name": "node_Particles02",
			"mesh": 2
		},
		{
			"name": "node_Particles03",
			"mesh": 3,
			"translation": [ 0.3899559, -0.08408673, -0.1524473]
		},
		{
			"name": "node_Particles04",
			"mesh": 4
		},
		{
			"name": "node_Particles05",
			"mesh": 5,
			"translation": [ -0.3068839, 0, -0.6755379]
		}
	],
	"samplers": [
		{
			"magFilter": 9729,
			"minFilter": 9985,
			"wrapS": 10497,
			"wrapT": 10497
		}
	],
	"scenes": [
		{
			"name":"defaultScene",
			"nodes": [
				0
			]
		}
	],
	"scene": 0,
	"textures": [
		{
			"sampler": 0,
			"source": 0
		}
	]
}