{
	"asset": {
		"generator": "Unity 2020.3.11f1",
		"extras": {
			"exporterVersion" : "2.2.1"
		},
		"version": "2.0"
	},
	"accessors": [
		{
			"bufferView": 2,
			"byteOffset": 0,
			"componentType": 5126,
			"count": 5408,
			"max": [ 48, 0.05898301, 48 ],
			"min": [ -48, -0.03120726, -48 ],
			"type": "VEC3"
		},
		{
			"bufferView": 2,
			"byteOffset": 64896,
			"componentType": 5126,
			"count": 5408,
			"max": [ 1, 1, 1 ],
			"min": [ -1, -0.8834268, -1 ],
			"type": "VEC3"
		},
		{
			"bufferView": 1,
			"byteOffset": 0,
			"componentType": 5126,
			"count": 5408,
			"max": [ 0.9942893, 0.9999003 ],
			"min": [ 0.734226, 9.977133E-05 ],
			"type": "VEC2"
		},
		{
			"bufferView": 3,
			"byteOffset": 0,
			"componentType": 5126,
			"count": 5408,
			"max": [ 0.9982231, 1, 0.9999874, 1 ],
			"min": [ -0.9982231, -1, -0.9999874, -1 ],
			"type": "VEC4"
		},
		{
			"bufferView": 0,
			"byteOffset": 0,
			"componentType": 5123,
			"count": 9504,
			"max": [ 5407 ],
			"min": [ 0 ],
			"type": "SCALAR"
		}
	],
	"buffers": [
		{
			"byteLength": 278592,
			"uri": "entity33396.bin"
		}
	],
	"bufferViews": [
		{
			"buffer": 0,
			"byteLength": 19008,
			"target": 34963,
			"byteOffset": 259584
		},
		{
			"buffer": 0,
			"byteLength": 43264,
			"target": 34962,
			"byteStride": 8,
			"byteOffset": 0
		},
		{
			"buffer": 0,
			"byteLength": 129792,
			"target": 34962,
			"byteStride": 12,
			"byteOffset": 43264
		},
		{
			"buffer": 0,
			"byteLength": 86528,
			"target": 34962,
			"byteStride": 16,
			"byteOffset": 173056
		}
	],
	"images": [
		{
			"uri": "Assets/Visuals/Materials/Textures/Terrain_path_Albedo.png"
		}
	],
	"materials": [
		{
			"pbrMetallicRoughness": {
				"baseColorTexture" : {
					"index" : 0,
					"texCoord" : 0
				},
				"baseColorFactor": [1, 1, 1, 1],
				"metallicFactor": 0,
				"roughnessFactor": 0.735
			},
			"emissiveTexture" : {
				"index" : 0,
				"texCoord" : 0
			},
			"emissiveFactor": [1, 1, 1],
			"doubleSided": false,
			"name": "Terrain_path_Mat"
		}
	],
	"meshes": [
		{
			"name": "mesh_Terrain_path2_21712Terrain_path2",
			"primitives": [
				{
					"attributes": {
						"POSITION": 0,
						"NORMAL": 1,
						"TEXCOORD_0": 2,
						"TANGENT": 3
					},
					"indices": 4,
					"material": 0,
					"mode": 4
				}
			]
		}
	],
	"nodes": [
		{
			"name": "UnityGlTF_root",
			"children": [
				1
			]
		},
		{
			"name": "node_Terrain_path2",
			"mesh": 0,
			"matrix": [1, 0, 0, 0, 0, 1, 0, 0, 0, 0, 1, 0, 0, 0, 0, 1]
		}
	],
	"samplers": [
		{
			"magFilter": 9729,
			"minFilter": 9985,
			"wrapS": 10497,
			"wrapT": 10497
		}
	],
	"scenes": [
		{
			"name":"defaultScene",
			"nodes": [
				0
			]
		}
	],
	"scene": 0,
	"textures": [
		{
			"sampler": 0,
			"source": 0
		}
	]
}