{
	"asset": {
		"generator": "Unity 2020.3.11f1",
		"extras": {
			"exporterVersion" : "2.2.1"
		},
		"version": "2.0"
	},
	"accessors": [
		{
			"bufferView": 2,
			"byteOffset": 0,
			"componentType": 5126,
			"count": 231,
			"max": [ 0.8660254, 0.3684743, 1 ],
			"min": [ -0.8660254, -0.002596915, -1 ],
			"type": "VEC3"
		},
		{
			"bufferView": 2,
			"byteOffset": 2772,
			"componentType": 5126,
			"count": 231,
			"max": [ 1, 1, 0.8660254 ],
			"min": [ -1, -1, -0.8660255 ],
			"type": "VEC3"
		},
		{
			"bufferView": 1,
			"byteOffset": 0,
			"componentType": 5126,
			"count": 231,
			"max": [ 0.8618224, 0.8259662 ],
			"min": [ 0.009083088, 0.01473021 ],
			"type": "VEC2"
		},
		{
			"bufferView": 3,
			"byteOffset": 0,
			"componentType": 5126,
			"count": 231,
			"max": [ 0.8660255, 0.6685275, 1, 1 ],
			"min": [ -0.8660255, -0.9060698, -1, 1 ],
			"type": "VEC4"
		},
		{
			"bufferView": 0,
			"byteOffset": 0,
			"componentType": 5123,
			"count": 396,
			"max": [ 230 ],
			"min": [ 0 ],
			"type": "SCALAR"
		}
	],
	"buffers": [
		{
			"byteLength": 11880,
			"uri": "entity24272.bin"
		}
	],
	"bufferViews": [
		{
			"buffer": 0,
			"byteLength": 792,
			"target": 34963,
			"byteOffset": 11088
		},
		{
			"buffer": 0,
			"byteLength": 1848,
			"target": 34962,
			"byteStride": 8,
			"byteOffset": 0
		},
		{
			"buffer": 0,
			"byteLength": 5544,
			"target": 34962,
			"byteStride": 12,
			"byteOffset": 1848
		},
		{
			"buffer": 0,
			"byteLength": 3696,
			"target": 34962,
			"byteStride": 16,
			"byteOffset": 7392
		}
	],
	"materials": [
		{
			"pbrMetallicRoughness": {
				"baseColorFactor": [0.4, 0.4, 0.4, 1],
				"metallicFactor": 0,
				"roughnessFactor": 1
			},
			"emissiveFactor": [0, 0, 0],
			"doubleSided": false,
			"name": "Collider_Mat"
		}
	],
	"meshes": [
		{
			"name": "mesh_HoloPot_collider_23238HoloPot_collider",
			"primitives": [
				{
					"attributes": {
						"POSITION": 0,
						"NORMAL": 1,
						"TEXCOORD_0": 2,
						"TANGENT": 3
					},
					"indices": 4,
					"material": 0,
					"mode": 4
				}
			]
		}
	],
	"nodes": [
		{
			"name": "UnityGlTF_root",
			"children": [
				1
			]
		},
		{
			"name": "node_HoloPot_collider",
			"mesh": 0,
			"matrix": [1, 0, 0, 0, 0, 1, 0, 0, 0, 0, 1, 0, 0, 0, 0, 1]
		}
	],
	"scenes": [
		{
			"name":"defaultScene",
			"nodes": [
				0
			]
		}
	],
	"scene": 0
}