{
	"asset": {
		"generator": "Unity 2020.3.11f1",
		"extras": {
			"exporterVersion" : "2.2.1"
		},
		"version": "2.0"
	},
	"accessors": [
		{
			"bufferView": 2,
			"byteOffset": 0,
			"componentType": 5126,
			"count": 1089,
			"max": [ 23.9173, 50.93888, 47.7209 ],
			"min": [ -17.04864, 16.54282, 13.93567 ],
			"type": "VEC3"
		},
		{
			"bufferView": 2,
			"byteOffset": 13068,
			"componentType": 5126,
			"count": 1089,
			"max": [ 0.9991073, 1, 0.9995155 ],
			"min": [ -0.9997092, -0.005325855, -0.9995629 ],
			"type": "VEC3"
		},
		{
			"bufferView": 1,
			"byteOffset": 0,
			"componentType": 5126,
			"count": 1089,
			"max": [ 1.060008, 0.9869221 ],
			"min": [ -0.09544014, 0.02142861 ],
			"type": "VEC2"
		},
		{
			"bufferView": 3,
			"byteOffset": 0,
			"componentType": 5126,
			"count": 1089,
			"max": [ 1, 0.1375608, 1, 1 ],
			"min": [ -0.1456833, -0.1298865, -1, -1 ],
			"type": "VEC4"
		},
		{
			"bufferView": 0,
			"byteOffset": 0,
			"componentType": 5123,
			"count": 4650,
			"max": [ 1088 ],
			"min": [ 0 ],
			"type": "SCALAR"
		}
	],
	"buffers": [
		{
			"byteLength": 61572,
			"uri": "entity58962.bin"
		}
	],
	"bufferViews": [
		{
			"buffer": 0,
			"byteLength": 9300,
			"target": 34963,
			"byteOffset": 52272
		},
		{
			"buffer": 0,
			"byteLength": 8712,
			"target": 34962,
			"byteStride": 8,
			"byteOffset": 0
		},
		{
			"buffer": 0,
			"byteLength": 26136,
			"target": 34962,
			"byteStride": 12,
			"byteOffset": 8712
		},
		{
			"buffer": 0,
			"byteLength": 17424,
			"target": 34962,
			"byteStride": 16,
			"byteOffset": 34848
		}
	],
	"images": [
		{
			"uri": "Assets/Visuals/Materials/Textures/Domes01_Albedo.png"
		},
		{
			"uri": "Assets/Visuals/Materials/Textures/Sphere01_Emissive.jpg"
		}
	],
	"materials": [
		{
			"pbrMetallicRoughness": {
				"baseColorTexture" : {
					"index" : 0,
					"texCoord" : 0
				},
				"baseColorFactor": [1, 1, 1, 1],
				"metallicFactor": 0,
				"roughnessFactor": 1
			},
			"alphaMode": "BLEND",
			"alphaCutoff": 0.5,
			"emissiveTexture" : {
				"index" : 1,
				"texCoord" : 0
			},
			"emissiveFactor": [2.639016, 2.639016, 2.639016],
			"doubleSided": true,
			"name": "Domes_Mat"
		}
	],
	"meshes": [
		{
			"name": "mesh_Dome02_Base_33794Dome02_Base",
			"primitives": [
				{
					"attributes": {
						"POSITION": 0,
						"NORMAL": 1,
						"TEXCOORD_0": 2,
						"TANGENT": 3
					},
					"indices": 4,
					"material": 0,
					"mode": 4
				}
			]
		}
	],
	"nodes": [
		{
			"name": "UnityGlTF_root",
			"children": [
				1
			]
		},
		{
			"name": "node_Dome02_Base",
			"mesh": 0,
			"matrix": [1, 0, 0, 0, 0, 1, 0, 0, 0, 0, 1, 0, 0, 0, 0, 1]
		}
	],
	"samplers": [
		{
			"magFilter": 9729,
			"minFilter": 9985,
			"wrapS": 10497,
			"wrapT": 10497
		}
	],
	"scenes": [
		{
			"name":"defaultScene",
			"nodes": [
				0
			]
		}
	],
	"scene": 0,
	"textures": [
		{
			"sampler": 0,
			"source": 0
		},
		{
			"sampler": 0,
			"source": 1
		}
	]
}