{
	"asset": {
		"generator": "Unity 2020.3.11f1",
		"extras": {
			"exporterVersion" : "2.2.1"
		},
		"version": "2.0"
	},
	"accessors": [
		{
			"bufferView": 2,
			"byteOffset": 0,
			"componentType": 5126,
			"count": 315,
			"max": [ 3.501838, 4.91586, 4.88895 ],
			"min": [ -3.501838, -0.2018141, -1.635796 ],
			"type": "VEC3"
		},
		{
			"bufferView": 2,
			"byteOffset": 3780,
			"componentType": 5126,
			"count": 315,
			"max": [ 0.9859157, 0.961182, 0.7537681 ],
			"min": [ -0.9859157, -0.7795864, -0.982814 ],
			"type": "VEC3"
		},
		{
			"bufferView": 1,
			"byteOffset": 0,
			"componentType": 5126,
			"count": 315,
			"max": [ 0.7978719, 1 ],
			"min": [ 0.2027652, 0 ],
			"type": "VEC2"
		},
		{
			"bufferView": 3,
			"byteOffset": 0,
			"componentType": 5126,
			"count": 315,
			"max": [ 0.9999505, 0.5539969, 0.9900076, 1 ],
			"min": [ -0.9651407, -0.5598674, -0.859736, -1 ],
			"type": "VEC4"
		},
		{
			"bufferView": 0,
			"byteOffset": 0,
			"componentType": 5123,
			"count": 1008,
			"max": [ 314 ],
			"min": [ 0 ],
			"type": "SCALAR"
		}
	],
	"buffers": [
		{
			"byteLength": 17136,
			"uri": "entity54500.bin"
		}
	],
	"bufferViews": [
		{
			"buffer": 0,
			"byteLength": 2016,
			"target": 34963,
			"byteOffset": 15120
		},
		{
			"buffer": 0,
			"byteLength": 2520,
			"target": 34962,
			"byteStride": 8,
			"byteOffset": 0
		},
		{
			"buffer": 0,
			"byteLength": 7560,
			"target": 34962,
			"byteStride": 12,
			"byteOffset": 2520
		},
		{
			"buffer": 0,
			"byteLength": 5040,
			"target": 34962,
			"byteStride": 16,
			"byteOffset": 10080
		}
	],
	"images": [
		{
			"uri": "Assets/Visuals/Materials/Textures/AltarHolo_Albedo.png"
		}
	],
	"materials": [
		{
			"pbrMetallicRoughness": {
				"baseColorTexture" : {
					"index" : 0,
					"texCoord" : 0
				},
				"baseColorFactor": [1, 1, 1, 0.3960784],
				"metallicFactor": 0,
				"roughnessFactor": 0.5
			},
			"alphaMode": "BLEND",
			"alphaCutoff": 0.5,
			"emissiveTexture" : {
				"index" : 0,
				"texCoord" : 0
			},
			"emissiveFactor": [0.2509804, 0.2509804, 0.2509804],
			"doubleSided": false,
			"name": "AltarHolo_Mat"
		}
	],
	"meshes": [
		{
			"name": "mesh_AltarHoloPetals_33306AltarHoloPetals",
			"primitives": [
				{
					"attributes": {
						"POSITION": 0,
						"NORMAL": 1,
						"TEXCOORD_0": 2,
						"TANGENT": 3
					},
					"indices": 4,
					"material": 0,
					"mode": 4
				}
			]
		}
	],
	"nodes": [
		{
			"name": "UnityGlTF_root",
			"children": [
				1
			]
		},
		{
			"name": "node_AltarHoloPetals",
			"mesh": 0,
			"matrix": [1, 0, 0, 0, 0, 1, 0, 0, 0, 0, 1, 0, 0, 0, 0, 1]
		}
	],
	"samplers": [
		{
			"magFilter": 9729,
			"minFilter": 9985,
			"wrapS": 10497,
			"wrapT": 10497
		}
	],
	"scenes": [
		{
			"name":"defaultScene",
			"nodes": [
				0
			]
		}
	],
	"scene": 0,
	"textures": [
		{
			"sampler": 0,
			"source": 0
		}
	]
}