{
	"asset": {
		"generator": "Unity 2020.3.11f1",
		"extras": {
			"exporterVersion" : "2.2.1"
		},
		"version": "2.0"
	},
	"accessors": [
		{
			"bufferView": 2,
			"byteOffset": 0,
			"componentType": 5126,
			"count": 1080,
			"max": [ 48, 0.0413876, 48 ],
			"min": [ -48, 0.001514816, -48 ],
			"type": "VEC3"
		},
		{
			"bufferView": 2,
			"byteOffset": 12960,
			"componentType": 5126,
			"count": 1080,
			"max": [ 0.7987916, 1, 0.9992473 ],
			"min": [ -0.7987916, -0.6024219, -0.9992473 ],
			"type": "VEC3"
		},
		{
			"bufferView": 1,
			"byteOffset": 0,
			"componentType": 5126,
			"count": 1080,
			"max": [ 0.7436388, 0.991944 ],
			"min": [ 0, 0 ],
			"type": "VEC2"
		},
		{
			"bufferView": 3,
			"byteOffset": 0,
			"componentType": 5126,
			"count": 1080,
			"max": [ 1, 0, 0.9424267, 1 ],
			"min": [ -0.9931751, 0, -0.9424267, -1 ],
			"type": "VEC4"
		},
		{
			"bufferView": 0,
			"byteOffset": 0,
			"componentType": 5123,
			"count": 1776,
			"max": [ 1079 ],
			"min": [ 0 ],
			"type": "SCALAR"
		}
	],
	"buffers": [
		{
			"byteLength": 55392,
			"uri": "entity33400.bin"
		}
	],
	"bufferViews": [
		{
			"buffer": 0,
			"byteLength": 3552,
			"target": 34963,
			"byteOffset": 51840
		},
		{
			"buffer": 0,
			"byteLength": 8640,
			"target": 34962,
			"byteStride": 8,
			"byteOffset": 0
		},
		{
			"buffer": 0,
			"byteLength": 25920,
			"target": 34962,
			"byteStride": 12,
			"byteOffset": 8640
		},
		{
			"buffer": 0,
			"byteLength": 17280,
			"target": 34962,
			"byteStride": 16,
			"byteOffset": 34560
		}
	],
	"images": [
		{
			"uri": "Assets/Visuals/Materials/Textures/Terrain_path_Albedo.png"
		}
	],
	"materials": [
		{
			"pbrMetallicRoughness": {
				"baseColorTexture" : {
					"index" : 0,
					"texCoord" : 0
				},
				"baseColorFactor": [1, 1, 1, 1],
				"metallicFactor": 0,
				"roughnessFactor": 0.735
			},
			"emissiveTexture" : {
				"index" : 0,
				"texCoord" : 0
			},
			"emissiveFactor": [1, 1, 1],
			"doubleSided": false,
			"name": "Terrain_path_Mat"
		}
	],
	"meshes": [
		{
			"name": "mesh_Terrain_path_21688Terrain_path",
			"primitives": [
				{
					"attributes": {
						"POSITION": 0,
						"NORMAL": 1,
						"TEXCOORD_0": 2,
						"TANGENT": 3
					},
					"indices": 4,
					"material": 0,
					"mode": 4
				}
			]
		}
	],
	"nodes": [
		{
			"name": "UnityGlTF_root",
			"children": [
				1
			]
		},
		{
			"name": "node_Terrain_path",
			"mesh": 0,
			"matrix": [1, 0, 0, 0, 0, 1, 0, 0, 0, 0, 1, 0, 0, 0, 0, 1]
		}
	],
	"samplers": [
		{
			"magFilter": 9729,
			"minFilter": 9985,
			"wrapS": 10497,
			"wrapT": 10497
		}
	],
	"scenes": [
		{
			"name":"defaultScene",
			"nodes": [
				0
			]
		}
	],
	"scene": 0,
	"textures": [
		{
			"sampler": 0,
			"source": 0
		}
	]
}