{
	"asset": {
		"generator": "Unity 2020.3.11f1",
		"extras": {
			"exporterVersion" : "2.2.1"
		},
		"version": "2.0"
	},
	"accessors": [
		{
			"bufferView": 2,
			"byteOffset": 0,
			"componentType": 5126,
			"count": 373,
			"max": [ -9.501404, 48.94115, -18.44577 ],
			"min": [ -45.69113, 41.53674, -43.62378 ],
			"type": "VEC3"
		},
		{
			"bufferView": 2,
			"byteOffset": 4476,
			"componentType": 5126,
			"count": 373,
			"max": [ 0.9969298, 1, 1 ],
			"min": [ -0.9303292, -1, -0.9916614 ],
			"type": "VEC3"
		},
		{
			"bufferView": 1,
			"byteOffset": 0,
			"componentType": 5126,
			"count": 373,
			"max": [ 0.65625, 0.9790665 ],
			"min": [ 0, 0 ],
			"type": "VEC2"
		},
		{
			"bufferView": 3,
			"byteOffset": 0,
			"componentType": 5126,
			"count": 373,
			"max": [ 1, 0, 0.9232405, 1 ],
			"min": [ -0.9916614, 0, -0.9378665, 1 ],
			"type": "VEC4"
		},
		{
			"bufferView": 0,
			"byteOffset": 0,
			"componentType": 5123,
			"count": 663,
			"max": [ 372 ],
			"min": [ 0 ],
			"type": "SCALAR"
		}
	],
	"buffers": [
		{
			"byteLength": 19230,
			"uri": "entity62900.bin"
		}
	],
	"bufferViews": [
		{
			"buffer": 0,
			"byteLength": 1326,
			"target": 34963,
			"byteOffset": 17904
		},
		{
			"buffer": 0,
			"byteLength": 2984,
			"target": 34962,
			"byteStride": 8,
			"byteOffset": 0
		},
		{
			"buffer": 0,
			"byteLength": 8952,
			"target": 34962,
			"byteStride": 12,
			"byteOffset": 2984
		},
		{
			"buffer": 0,
			"byteLength": 5968,
			"target": 34962,
			"byteStride": 16,
			"byteOffset": 11936
		}
	],
	"materials": [
		{
			"pbrMetallicRoughness": {
				"baseColorFactor": [1, 0.004716992, 0.004716992, 1],
				"metallicFactor": 0,
				"roughnessFactor": 0.5
			},
			"emissiveFactor": [0, 0, 0],
			"doubleSided": false,
			"name": "Collider_Mat"
		}
	],
	"meshes": [
		{
			"name": "mesh_Hexagon_FloorExtra_collider_34364Hexagon_FloorExtra_collider",
			"primitives": [
				{
					"attributes": {
						"POSITION": 0,
						"NORMAL": 1,
						"TEXCOORD_0": 2,
						"TANGENT": 3
					},
					"indices": 4,
					"material": 0,
					"mode": 4
				}
			]
		}
	],
	"nodes": [
		{
			"name": "UnityGlTF_root",
			"children": [
				1
			]
		},
		{
			"name": "node_Hexagon_FloorExtra_collider",
			"mesh": 0,
			"matrix": [1, 0, 0, 0, 0, 1, 0, 0, 0, 0, 1, 0, 0, 0, 0, 1]
		}
	],
	"scenes": [
		{
			"name":"defaultScene",
			"nodes": [
				0
			]
		}
	],
	"scene": 0
}