{
	"asset": {
		"generator": "Unity 2020.3.11f1",
		"extras": {
			"exporterVersion" : "2.2.1"
		},
		"version": "2.0"
	},
	"accessors": [
		{
			"bufferView": 2,
			"byteOffset": 0,
			"componentType": 5126,
			"count": 2518,
			"max": [ 26.67972, 82.13882, 32.64257 ],
			"min": [ -31.94906, -1.986592, -32.09118 ],
			"type": "VEC3"
		},
		{
			"bufferView": 2,
			"byteOffset": 30216,
			"componentType": 5126,
			"count": 2518,
			"max": [ 0.9999092, 0.9997218, 0.9993906 ],
			"min": [ -0.9990734, -0.9998525, -0.9926122 ],
			"type": "VEC3"
		},
		{
			"bufferView": 1,
			"byteOffset": 0,
			"componentType": 5126,
			"count": 2518,
			"max": [ 0.9999225, 0.9997857 ],
			"min": [ 7.758127E-05, 7.758127E-05 ],
			"type": "VEC2"
		},
		{
			"bufferView": 3,
			"byteOffset": 0,
			"componentType": 5126,
			"count": 2518,
			"max": [ 0.9989579, 0.9994662, 0.9992447, 1 ],
			"min": [ -0.9998037, -0.9995298, -0.9999505, 1 ],
			"type": "VEC4"
		},
		{
			"bufferView": 0,
			"byteOffset": 0,
			"componentType": 5123,
			"count": 1818,
			"max": [ 345 ],
			"min": [ 0 ],
			"type": "SCALAR"
		},
		{
			"bufferView": 0,
			"byteOffset": 3636,
			"componentType": 5123,
			"count": 2712,
			"max": [ 886 ],
			"min": [ 346 ],
			"type": "SCALAR"
		},
		{
			"bufferView": 0,
			"byteOffset": 9060,
			"componentType": 5123,
			"count": 792,
			"max": [ 1051 ],
			"min": [ 887 ],
			"type": "SCALAR"
		},
		{
			"bufferView": 0,
			"byteOffset": 10644,
			"componentType": 5123,
			"count": 2256,
			"max": [ 1505 ],
			"min": [ 1052 ],
			"type": "SCALAR"
		},
		{
			"bufferView": 0,
			"byteOffset": 15156,
			"componentType": 5123,
			"count": 963,
			"max": [ 1698 ],
			"min": [ 1506 ],
			"type": "SCALAR"
		},
		{
			"bufferView": 0,
			"byteOffset": 17082,
			"componentType": 5123,
			"count": 4209,
			"max": [ 2517 ],
			"min": [ 1699 ],
			"type": "SCALAR"
		}
	],
	"buffers": [
		{
			"byteLength": 146364,
			"uri": "entity53498.bin"
		}
	],
	"bufferViews": [
		{
			"buffer": 0,
			"byteLength": 25500,
			"target": 34963,
			"byteOffset": 120864
		},
		{
			"buffer": 0,
			"byteLength": 20144,
			"target": 34962,
			"byteStride": 8,
			"byteOffset": 0
		},
		{
			"buffer": 0,
			"byteLength": 60432,
			"target": 34962,
			"byteStride": 12,
			"byteOffset": 20144
		},
		{
			"buffer": 0,
			"byteLength": 40288,
			"target": 34962,
			"byteStride": 16,
			"byteOffset": 80576
		}
	],
	"images": [
		{
			"uri": "Assets/Visuals/Materials/Textures/Trunk03_Albedo.png"
		},
		{
			"uri": "Assets/Visuals/Materials/Textures/Branches02_Albedo.png"
		},
		{
			"uri": "Assets/Visuals/Materials/Textures/Trunk02_Albedo.png"
		},
		{
			"uri": "Assets/Visuals/Materials/Textures/Branches01_Albedo.png"
		},
		{
			"uri": "Assets/Visuals/Materials/Textures/Trunk01_Albedo.png"
		},
		{
			"uri": "Assets/Visuals/Materials/Textures/Roots_Albedo.png"
		}
	],
	"materials": [
		{
			"pbrMetallicRoughness": {
				"baseColorTexture" : {
					"index" : 0,
					"texCoord" : 0
				},
				"baseColorFactor": [1, 1, 1, 1],
				"metallicFactor": 0,
				"roughnessFactor": 1
			},
			"emissiveFactor": [0, 0, 0],
			"doubleSided": false,
			"name": "Trunk03_Mat"
		},
		{
			"pbrMetallicRoughness": {
				"baseColorTexture" : {
					"index" : 1,
					"texCoord" : 0
				},
				"baseColorFactor": [1, 1, 1, 1],
				"metallicFactor": 0,
				"roughnessFactor": 1
			},
			"emissiveFactor": [0, 0, 0],
			"doubleSided": false,
			"name": "Branches02_Mat"
		},
		{
			"pbrMetallicRoughness": {
				"baseColorTexture" : {
					"index" : 2,
					"texCoord" : 0
				},
				"baseColorFactor": [1, 1, 1, 1],
				"metallicFactor": 0,
				"roughnessFactor": 1
			},
			"emissiveFactor": [0, 0, 0],
			"doubleSided": false,
			"name": "Trunk02_Mat"
		},
		{
			"pbrMetallicRoughness": {
				"baseColorTexture" : {
					"index" : 3,
					"texCoord" : 0
				},
				"baseColorFactor": [1, 1, 1, 1],
				"metallicFactor": 0,
				"roughnessFactor": 1
			},
			"emissiveFactor": [0, 0, 0],
			"doubleSided": false,
			"name": "Branches01_Mat"
		},
		{
			"pbrMetallicRoughness": {
				"baseColorTexture" : {
					"index" : 4,
					"texCoord" : 0
				},
				"baseColorFactor": [1, 1, 1, 1],
				"metallicFactor": 0,
				"roughnessFactor": 1
			},
			"emissiveFactor": [0, 0, 0],
			"doubleSided": false,
			"name": "Trunk01_Mat"
		},
		{
			"pbrMetallicRoughness": {
				"baseColorTexture" : {
					"index" : 5,
					"texCoord" : 0
				},
				"baseColorFactor": [1, 1, 1, 1],
				"metallicFactor": 0,
				"roughnessFactor": 1
			},
			"emissiveFactor": [0, 0, 0],
			"doubleSided": false,
			"name": "Roots_Mat"
		}
	],
	"meshes": [
		{
			"name": "mesh_BezierCurve_33056BezierCurve",
			"primitives": [
				{
					"attributes": {
						"POSITION": 0,
						"NORMAL": 1,
						"TEXCOORD_0": 2,
						"TANGENT": 3
					},
					"indices": 4,
					"material": 0,
					"mode": 4
				},
				{
					"attributes": {
						"POSITION": 0,
						"NORMAL": 1,
						"TEXCOORD_0": 2,
						"TANGENT": 3
					},
					"indices": 5,
					"material": 1,
					"mode": 4
				},
				{
					"attributes": {
						"POSITION": 0,
						"NORMAL": 1,
						"TEXCOORD_0": 2,
						"TANGENT": 3
					},
					"indices": 6,
					"material": 2,
					"mode": 4
				},
				{
					"attributes": {
						"POSITION": 0,
						"NORMAL": 1,
						"TEXCOORD_0": 2,
						"TANGENT": 3
					},
					"indices": 7,
					"material": 3,
					"mode": 4
				},
				{
					"attributes": {
						"POSITION": 0,
						"NORMAL": 1,
						"TEXCOORD_0": 2,
						"TANGENT": 3
					},
					"indices": 8,
					"material": 4,
					"mode": 4
				},
				{
					"attributes": {
						"POSITION": 0,
						"NORMAL": 1,
						"TEXCOORD_0": 2,
						"TANGENT": 3
					},
					"indices": 9,
					"material": 5,
					"mode": 4
				}
			]
		}
	],
	"nodes": [
		{
			"name": "UnityGlTF_root",
			"children": [
				1
			]
		},
		{
			"name": "node_BezierCurve",
			"mesh": 0,
			"matrix": [1, 0, 0, 0, 0, 1, 0, 0, 0, 0, 1, 0, 0, 0, 0, 1]
		}
	],
	"samplers": [
		{
			"magFilter": 9729,
			"minFilter": 9985,
			"wrapS": 10497,
			"wrapT": 10497
		}
	],
	"scenes": [
		{
			"name":"defaultScene",
			"nodes": [
				0
			]
		}
	],
	"scene": 0,
	"textures": [
		{
			"sampler": 0,
			"source": 0
		},
		{
			"sampler": 0,
			"source": 1
		},
		{
			"sampler": 0,
			"source": 2
		},
		{
			"sampler": 0,
			"source": 3
		},
		{
			"sampler": 0,
			"source": 4
		},
		{
			"sampler": 0,
			"source": 5
		}
	]
}