{
	"asset": {
		"generator": "Unity 2020.3.11f1",
		"extras": {
			"exporterVersion" : "2.2.1"
		},
		"version": "2.0"
	},
	"accessors": [
		{
			"bufferView": 2,
			"byteOffset": 0,
			"componentType": 5126,
			"count": 16,
			"max": [ 17.07082, 34.10522, 42.47667 ],
			"min": [ 5.121405, 30.50111, 27.6853 ],
			"type": "VEC3"
		},
		{
			"bufferView": 2,
			"byteOffset": 192,
			"componentType": 5126,
			"count": 16,
			"max": [ 0.05225942, 0.9760735, 0.2947651 ],
			"min": [ -0.2933446, 0.9191973, 0.1595732 ],
			"type": "VEC3"
		},
		{
			"bufferView": 1,
			"byteOffset": 0,
			"componentType": 5126,
			"count": 16,
			"max": [ 0.75, 0.75 ],
			"min": [ 0.25, 0.25 ],
			"type": "VEC2"
		},
		{
			"bufferView": 3,
			"byteOffset": 0,
			"componentType": 5126,
			"count": 16,
			"max": [ -0.6657263, 0.00889599, 0.2301659, 1 ],
			"min": [ -0.9731486, 0, -0.746143, 1 ],
			"type": "VEC4"
		},
		{
			"bufferView": 0,
			"byteOffset": 0,
			"componentType": 5123,
			"count": 24,
			"max": [ 15 ],
			"min": [ 0 ],
			"type": "SCALAR"
		}
	],
	"buffers": [
		{
			"byteLength": 816,
			"uri": "entity58728.bin"
		}
	],
	"bufferViews": [
		{
			"buffer": 0,
			"byteLength": 48,
			"target": 34963,
			"byteOffset": 768
		},
		{
			"buffer": 0,
			"byteLength": 128,
			"target": 34962,
			"byteStride": 8,
			"byteOffset": 0
		},
		{
			"buffer": 0,
			"byteLength": 384,
			"target": 34962,
			"byteStride": 12,
			"byteOffset": 128
		},
		{
			"buffer": 0,
			"byteLength": 256,
			"target": 34962,
			"byteStride": 16,
			"byteOffset": 512
		}
	],
	"images": [
		{
			"uri": "Assets/Visuals/Materials/Textures/Terrain_Albedo.png"
		}
	],
	"materials": [
		{
			"pbrMetallicRoughness": {
				"baseColorTexture" : {
					"index" : 0,
					"texCoord" : 0
				},
				"baseColorFactor": [1, 1, 1, 0.772549],
				"metallicFactor": 0,
				"roughnessFactor": 0.834
			},
			"alphaMode": "BLEND",
			"alphaCutoff": 0.5,
			"emissiveTexture" : {
				"index" : 0,
				"texCoord" : 0
			},
			"emissiveFactor": [0.5, 0.5, 0.5],
			"doubleSided": false,
			"name": "Terrain_FADE_Mat"
		}
	],
	"meshes": [
		{
			"name": "mesh_Hexagon_Floor_02_Ramp_Art_33736Hexagon_Floor_02_Ramp_Art",
			"primitives": [
				{
					"attributes": {
						"POSITION": 0,
						"NORMAL": 1,
						"TEXCOORD_0": 2,
						"TANGENT": 3
					},
					"indices": 4,
					"material": 0,
					"mode": 4
				}
			]
		}
	],
	"nodes": [
		{
			"name": "UnityGlTF_root",
			"children": [
				1
			]
		},
		{
			"name": "node_Hexagon_Floor_02_Ramp_Art",
			"mesh": 0,
			"matrix": [1, 0, 0, 0, 0, 1, 0, 0, 0, 0, 1, 0, 0, 0, 0, 1]
		}
	],
	"samplers": [
		{
			"magFilter": 9729,
			"minFilter": 9985,
			"wrapS": 10497,
			"wrapT": 10497
		}
	],
	"scenes": [
		{
			"name":"defaultScene",
			"nodes": [
				0
			]
		}
	],
	"scene": 0,
	"textures": [
		{
			"sampler": 0,
			"source": 0
		}
	]
}