{
	"asset": {
		"generator": "Unity 2020.3.11f1",
		"extras": {
			"exporterVersion" : "2.2.1"
		},
		"version": "2.0"
	},
	"accessors": [
		{
			"bufferView": 2,
			"byteOffset": 0,
			"componentType": 5126,
			"count": 1377,
			"max": [ 38.77647, 64.3928, 39.74887 ],
			"min": [ 2.081242, 35.29099, -3.542053 ],
			"type": "VEC3"
		},
		{
			"bufferView": 2,
			"byteOffset": 16524,
			"componentType": 5126,
			"count": 1377,
			"max": [ 0.9996858, 1, 0.9995304 ],
			"min": [ -0.9993842, -4.675466E-07, -0.9990317 ],
			"type": "VEC3"
		},
		{
			"bufferView": 1,
			"byteOffset": 0,
			"componentType": 5126,
			"count": 1377,
			"max": [ 1.153047, 0.9893622 ],
			"min": [ -0.2958113, 0.01694387 ],
			"type": "VEC2"
		},
		{
			"bufferView": 3,
			"byteOffset": 0,
			"componentType": 5126,
			"count": 1377,
			"max": [ 0.9999595, 0.9468193, 0.1468577, 1 ],
			"min": [ -0.9999671, -0.1499406, -1, -1 ],
			"type": "VEC4"
		},
		{
			"bufferView": 0,
			"byteOffset": 0,
			"componentType": 5123,
			"count": 5898,
			"max": [ 1376 ],
			"min": [ 0 ],
			"type": "SCALAR"
		}
	],
	"buffers": [
		{
			"byteLength": 77892,
			"uri": "entity32270.bin"
		}
	],
	"bufferViews": [
		{
			"buffer": 0,
			"byteLength": 11796,
			"target": 34963,
			"byteOffset": 66096
		},
		{
			"buffer": 0,
			"byteLength": 11016,
			"target": 34962,
			"byteStride": 8,
			"byteOffset": 0
		},
		{
			"buffer": 0,
			"byteLength": 33048,
			"target": 34962,
			"byteStride": 12,
			"byteOffset": 11016
		},
		{
			"buffer": 0,
			"byteLength": 22032,
			"target": 34962,
			"byteStride": 16,
			"byteOffset": 44064
		}
	],
	"images": [
		{
			"uri": "Assets/Visuals/Materials/Textures/Domes01_Albedo.png"
		},
		{
			"uri": "Assets/Visuals/Materials/Textures/Sphere01_Emissive.jpg"
		}
	],
	"materials": [
		{
			"pbrMetallicRoughness": {
				"baseColorTexture" : {
					"index" : 0,
					"texCoord" : 0
				},
				"baseColorFactor": [1, 1, 1, 1],
				"metallicFactor": 0,
				"roughnessFactor": 1
			},
			"alphaMode": "BLEND",
			"alphaCutoff": 0.5,
			"emissiveTexture" : {
				"index" : 1,
				"texCoord" : 0
			},
			"emissiveFactor": [2.639016, 2.639016, 2.639016],
			"doubleSided": true,
			"name": "Domes_Mat"
		}
	],
	"meshes": [
		{
			"name": "mesh_Dome04_Base_23120Dome04_Base",
			"primitives": [
				{
					"attributes": {
						"POSITION": 0,
						"NORMAL": 1,
						"TEXCOORD_0": 2,
						"TANGENT": 3
					},
					"indices": 4,
					"material": 0,
					"mode": 4
				}
			]
		}
	],
	"nodes": [
		{
			"name": "UnityGlTF_root",
			"children": [
				1
			]
		},
		{
			"name": "node_Dome04_Base",
			"mesh": 0,
			"matrix": [1, 0, 0, 0, 0, 1, 0, 0, 0, 0, 1, 0, 0, 0, 0, 1]
		}
	],
	"samplers": [
		{
			"magFilter": 9729,
			"minFilter": 9985,
			"wrapS": 10497,
			"wrapT": 10497
		}
	],
	"scenes": [
		{
			"name":"defaultScene",
			"nodes": [
				0
			]
		}
	],
	"scene": 0,
	"textures": [
		{
			"sampler": 0,
			"source": 0
		},
		{
			"sampler": 0,
			"source": 1
		}
	]
}