{
	"asset": {
		"generator": "Unity 2020.3.11f1",
		"extras": {
			"exporterVersion" : "2.2.1"
		},
		"version": "2.0"
	},
	"accessors": [
		{
			"bufferView": 2,
			"byteOffset": 0,
			"componentType": 5126,
			"count": 1611,
			"max": [ -18.13083, 47.94902, 33.54561 ],
			"min": [ -45.52694, 15.06868, -10.47646 ],
			"type": "VEC3"
		},
		{
			"bufferView": 2,
			"byteOffset": 19332,
			"componentType": 5126,
			"count": 1611,
			"max": [ 0.9995787, 1, 0.9995083 ],
			"min": [ -0.9998906, -0.4383447, -0.9996893 ],
			"type": "VEC3"
		},
		{
			"bufferView": 1,
			"byteOffset": 0,
			"componentType": 5126,
			"count": 1611,
			"max": [ 1.197958, 0.9924711 ],
			"min": [ -0.1187901, 0.01032787 ],
			"type": "VEC2"
		},
		{
			"bufferView": 3,
			"byteOffset": 0,
			"componentType": 5126,
			"count": 1611,
			"max": [ 1, 1, 1, 1 ],
			"min": [ -1, -0.9692289, -0.5602016, -1 ],
			"type": "VEC4"
		},
		{
			"bufferView": 0,
			"byteOffset": 0,
			"componentType": 5123,
			"count": 6540,
			"max": [ 1610 ],
			"min": [ 0 ],
			"type": "SCALAR"
		}
	],
	"buffers": [
		{
			"byteLength": 90408,
			"uri": "entity61644.bin"
		}
	],
	"bufferViews": [
		{
			"buffer": 0,
			"byteLength": 13080,
			"target": 34963,
			"byteOffset": 77328
		},
		{
			"buffer": 0,
			"byteLength": 12888,
			"target": 34962,
			"byteStride": 8,
			"byteOffset": 0
		},
		{
			"buffer": 0,
			"byteLength": 38664,
			"target": 34962,
			"byteStride": 12,
			"byteOffset": 12888
		},
		{
			"buffer": 0,
			"byteLength": 25776,
			"target": 34962,
			"byteStride": 16,
			"byteOffset": 51552
		}
	],
	"images": [
		{
			"uri": "Assets/Visuals/Materials/Textures/Domes01_Albedo.png"
		},
		{
			"uri": "Assets/Visuals/Materials/Textures/Sphere01_Emissive.jpg"
		}
	],
	"materials": [
		{
			"pbrMetallicRoughness": {
				"baseColorTexture" : {
					"index" : 0,
					"texCoord" : 0
				},
				"baseColorFactor": [1, 1, 1, 1],
				"metallicFactor": 0,
				"roughnessFactor": 1
			},
			"alphaMode": "BLEND",
			"alphaCutoff": 0.5,
			"emissiveTexture" : {
				"index" : 1,
				"texCoord" : 0
			},
			"emissiveFactor": [2.639016, 2.639016, 2.639016],
			"doubleSided": true,
			"name": "Domes_Mat"
		}
	],
	"meshes": [
		{
			"name": "mesh_Dome01_Base_34190Dome01_Base",
			"primitives": [
				{
					"attributes": {
						"POSITION": 0,
						"NORMAL": 1,
						"TEXCOORD_0": 2,
						"TANGENT": 3
					},
					"indices": 4,
					"material": 0,
					"mode": 4
				}
			]
		}
	],
	"nodes": [
		{
			"name": "UnityGlTF_root",
			"children": [
				1
			]
		},
		{
			"name": "node_Dome01_Base",
			"mesh": 0,
			"matrix": [1, 0, 0, 0, 0, 1, 0, 0, 0, 0, 1, 0, 0, 0, 0, 1]
		}
	],
	"samplers": [
		{
			"magFilter": 9729,
			"minFilter": 9985,
			"wrapS": 10497,
			"wrapT": 10497
		}
	],
	"scenes": [
		{
			"name":"defaultScene",
			"nodes": [
				0
			]
		}
	],
	"scene": 0,
	"textures": [
		{
			"sampler": 0,
			"source": 0
		},
		{
			"sampler": 0,
			"source": 1
		}
	]
}