{
	"asset": {
		"generator": "Unity 2020.3.11f1",
		"extras": {
			"exporterVersion" : "2.2.1"
		},
		"version": "2.0"
	},
	"accessors": [
		{
			"bufferView": 2,
			"byteOffset": 0,
			"componentType": 5126,
			"count": 7733,
			"max": [ 29.79219, 1.758203, 34.40088 ],
			"min": [ -29.79219, -0.1365625, -34.40088 ],
			"type": "VEC3"
		},
		{
			"bufferView": 2,
			"byteOffset": 92796,
			"componentType": 5126,
			"count": 7733,
			"max": [ 1, 1, 1 ],
			"min": [ -1, -0.9999992, -1 ],
			"type": "VEC3"
		},
		{
			"bufferView": 1,
			"byteOffset": 0,
			"componentType": 5126,
			"count": 7733,
			"max": [ 0.9913487, 0.9999069 ],
			"min": [ 9.32059E-05, 9.32059E-05 ],
			"type": "VEC2"
		},
		{
			"bufferView": 3,
			"byteOffset": 0,
			"componentType": 5126,
			"count": 7733,
			"max": [ 1, 1, 1, 1 ],
			"min": [ -1, -1, -1, -1 ],
			"type": "VEC4"
		},
		{
			"bufferView": 0,
			"byteOffset": 0,
			"componentType": 5123,
			"count": 19944,
			"max": [ 7581 ],
			"min": [ 0 ],
			"type": "SCALAR"
		},
		{
			"bufferView": 0,
			"byteOffset": 39888,
			"componentType": 5123,
			"count": 180,
			"max": [ 7665 ],
			"min": [ 7582 ],
			"type": "SCALAR"
		},
		{
			"bufferView": 0,
			"byteOffset": 40248,
			"componentType": 5123,
			"count": 162,
			"max": [ 7732 ],
			"min": [ 7666 ],
			"type": "SCALAR"
		}
	],
	"buffers": [
		{
			"byteLength": 411756,
			"uri": "entity30046.bin"
		}
	],
	"bufferViews": [
		{
			"buffer": 0,
			"byteLength": 40572,
			"target": 34963,
			"byteOffset": 371184
		},
		{
			"buffer": 0,
			"byteLength": 61864,
			"target": 34962,
			"byteStride": 8,
			"byteOffset": 0
		},
		{
			"buffer": 0,
			"byteLength": 185592,
			"target": 34962,
			"byteStride": 12,
			"byteOffset": 61864
		},
		{
			"buffer": 0,
			"byteLength": 123728,
			"target": 34962,
			"byteStride": 16,
			"byteOffset": 247456
		}
	],
	"images": [
		{
			"uri": "Assets/Visuals/Materials/Textures/PlatformBase_Albedo.png"
		},
		{
			"uri": "Assets/Visuals/Materials/Textures/PlatformBase_Emissive.jpg"
		},
		{
			"uri": "Assets/Visuals/Materials/Textures/Path_Albedo.png"
		},
		{
			"uri": "Assets/Visuals/Materials/Textures/Path_Emissive.jpg"
		},
		{
			"uri": "Assets/Visuals/Materials/Textures/PlatformPattern_Albedo.png"
		}
	],
	"materials": [
		{
			"pbrMetallicRoughness": {
				"baseColorTexture" : {
					"index" : 0,
					"texCoord" : 0
				},
				"baseColorFactor": [1, 1, 1, 1],
				"metallicFactor": 0,
				"roughnessFactor": 0.5
			},
			"emissiveTexture" : {
				"index" : 1,
				"texCoord" : 0
			},
			"emissiveFactor": [1, 1, 1],
			"doubleSided": false,
			"name": "PlatformBase_Mat"
		},
		{
			"pbrMetallicRoughness": {
				"baseColorTexture" : {
					"index" : 2,
					"texCoord" : 0
				},
				"baseColorFactor": [1, 1, 1, 1],
				"metallicFactor": 0,
				"roughnessFactor": 0.5
			},
			"alphaMode": "BLEND",
			"alphaCutoff": 0.5,
			"emissiveTexture" : {
				"index" : 3,
				"texCoord" : 0
			},
			"emissiveFactor": [1, 1, 1],
			"doubleSided": false,
			"name": "Path_Mat"
		},
		{
			"pbrMetallicRoughness": {
				"baseColorTexture" : {
					"index" : 4,
					"texCoord" : 0
				},
				"baseColorFactor": [1, 1, 1, 1],
				"metallicFactor": 0,
				"roughnessFactor": 0.5
			},
			"emissiveFactor": [0, 0, 0],
			"doubleSided": false,
			"name": "PlatformPattern_Mat"
		}
	],
	"meshes": [
		{
			"name": "mesh_Platform_22388Platform",
			"primitives": [
				{
					"attributes": {
						"POSITION": 0,
						"NORMAL": 1,
						"TEXCOORD_0": 2,
						"TANGENT": 3
					},
					"indices": 4,
					"material": 0,
					"mode": 4
				},
				{
					"attributes": {
						"POSITION": 0,
						"NORMAL": 1,
						"TEXCOORD_0": 2,
						"TANGENT": 3
					},
					"indices": 5,
					"material": 1,
					"mode": 4
				},
				{
					"attributes": {
						"POSITION": 0,
						"NORMAL": 1,
						"TEXCOORD_0": 2,
						"TANGENT": 3
					},
					"indices": 6,
					"material": 2,
					"mode": 4
				}
			]
		}
	],
	"nodes": [
		{
			"name": "UnityGlTF_root",
			"children": [
				1
			]
		},
		{
			"name": "node_Platform",
			"mesh": 0,
			"matrix": [1, 0, 0, 0, 0, 1, 0, 0, 0, 0, 1, 0, 0, 0, 0, 1]
		}
	],
	"samplers": [
		{
			"magFilter": 9729,
			"minFilter": 9985,
			"wrapS": 10497,
			"wrapT": 10497
		}
	],
	"scenes": [
		{
			"name":"defaultScene",
			"nodes": [
				0
			]
		}
	],
	"scene": 0,
	"textures": [
		{
			"sampler": 0,
			"source": 0
		},
		{
			"sampler": 0,
			"source": 1
		},
		{
			"sampler": 0,
			"source": 2
		},
		{
			"sampler": 0,
			"source": 3
		},
		{
			"sampler": 0,
			"source": 4
		}
	]
}