{
	"asset": {
		"generator": "Unity 2020.3.11f1",
		"extras": {
			"exporterVersion" : "2.2.1"
		},
		"version": "2.0"
	},
	"accessors": [
		{
			"bufferView": 2,
			"byteOffset": 0,
			"componentType": 5126,
			"count": 10000,
			"max": [ 8.223978, 82.79532, 12.51714 ],
			"min": [ -7.372345, 70.71459, 4.232667 ],
			"type": "VEC3"
		},
		{
			"bufferView": 2,
			"byteOffset": 120000,
			"componentType": 5126,
			"count": 10000,
			"max": [ 0.9978653, 0.9995372, 0.9998562 ],
			"min": [ -0.9978653, -0.9995372, -0.9998562 ],
			"type": "VEC3"
		},
		{
			"bufferView": 1,
			"byteOffset": 0,
			"componentType": 5126,
			"count": 10000,
			"max": [ 0.969521, 0.651109 ],
			"min": [ 0.6766225, 0.3582104 ],
			"type": "VEC2"
		},
		{
			"bufferView": 3,
			"byteOffset": 0,
			"componentType": 5126,
			"count": 10000,
			"max": [ 0.712885, 0.999821, 0.9968942, 1 ],
			"min": [ -0.9989187, -0.9998106, -0.9994708, -1 ],
			"type": "VEC4"
		},
		{
			"bufferView": 0,
			"byteOffset": 0,
			"componentType": 5123,
			"count": 15000,
			"max": [ 9999 ],
			"min": [ 0 ],
			"type": "SCALAR"
		}
	],
	"buffers": [
		{
			"byteLength": 510000,
			"uri": "entity57090.bin"
		}
	],
	"bufferViews": [
		{
			"buffer": 0,
			"byteLength": 30000,
			"target": 34963,
			"byteOffset": 480000
		},
		{
			"buffer": 0,
			"byteLength": 80000,
			"target": 34962,
			"byteStride": 8,
			"byteOffset": 0
		},
		{
			"buffer": 0,
			"byteLength": 240000,
			"target": 34962,
			"byteStride": 12,
			"byteOffset": 80000
		},
		{
			"buffer": 0,
			"byteLength": 160000,
			"target": 34962,
			"byteStride": 16,
			"byteOffset": 320000
		}
	],
	"images": [
		{
			"uri": "Assets/Visuals/Materials/Textures/SakuraFlower_Albedo.png"
		}
	],
	"materials": [
		{
			"pbrMetallicRoughness": {
				"baseColorTexture" : {
					"index" : 0,
					"texCoord" : 0
				},
				"baseColorFactor": [1, 1, 1, 1],
				"metallicFactor": 0,
				"roughnessFactor": 1
			},
			"alphaMode": "MASK",
			"alphaCutoff": 0.5,
			"emissiveFactor": [0, 0, 0],
			"doubleSided": false,
			"name": "Flowers_Mat"
		}
	],
	"meshes": [
		{
			"name": "mesh_BranchFlowers_33472BranchFlowers_Art",
			"primitives": [
				{
					"attributes": {
						"POSITION": 0,
						"NORMAL": 1,
						"TEXCOORD_0": 2,
						"TANGENT": 3
					},
					"indices": 4,
					"material": 0,
					"mode": 4
				}
			]
		}
	],
	"nodes": [
		{
			"name": "UnityGlTF_root",
			"children": [
				1
			]
		},
		{
			"name": "node_BranchFlowers_Art",
			"mesh": 0,
			"matrix": [1, 0, 0, 0, 0, 1, 0, 0, 0, 0, 1, 0, 0, 0, 0, 1]
		}
	],
	"samplers": [
		{
			"magFilter": 9729,
			"minFilter": 9985,
			"wrapS": 10497,
			"wrapT": 10497
		}
	],
	"scenes": [
		{
			"name":"defaultScene",
			"nodes": [
				0
			]
		}
	],
	"scene": 0,
	"textures": [
		{
			"sampler": 0,
			"source": 0
		}
	]
}