{
	"asset": {
		"generator": "Unity 2020.3.11f1",
		"extras": {
			"exporterVersion" : "2.2.1"
		},
		"version": "2.0"
	},
	"accessors": [
		{
			"bufferView": 2,
			"byteOffset": 0,
			"componentType": 5126,
			"count": 724,
			"max": [ 10.06861, 31.62669, 38.08553 ],
			"min": [ -7.164961, 30.52259, 20.82039 ],
			"type": "VEC3"
		},
		{
			"bufferView": 2,
			"byteOffset": 8688,
			"componentType": 5126,
			"count": 724,
			"max": [ 1, 1, 0.9999927 ],
			"min": [ -1, -1, -0.9999928 ],
			"type": "VEC3"
		},
		{
			"bufferView": 1,
			"byteOffset": 0,
			"componentType": 5126,
			"count": 724,
			"max": [ 0.985899, 0.991225 ],
			"min": [ 0.01660365, 0.007479671 ],
			"type": "VEC2"
		},
		{
			"bufferView": 3,
			"byteOffset": 0,
			"componentType": 5126,
			"count": 724,
			"max": [ 0.973437, 1, 0.9649404, 1 ],
			"min": [ -0.9735219, -1, -0.9672682, 1 ],
			"type": "VEC4"
		},
		{
			"bufferView": 0,
			"byteOffset": 0,
			"componentType": 5123,
			"count": 1524,
			"max": [ 722 ],
			"min": [ 0 ],
			"type": "SCALAR"
		},
		{
			"bufferView": 0,
			"byteOffset": 3048,
			"componentType": 5123,
			"count": 36,
			"max": [ 723 ],
			"min": [ 676 ],
			"type": "SCALAR"
		}
	],
	"buffers": [
		{
			"byteLength": 37872,
			"uri": "entity58732.bin"
		}
	],
	"bufferViews": [
		{
			"buffer": 0,
			"byteLength": 3120,
			"target": 34963,
			"byteOffset": 34752
		},
		{
			"buffer": 0,
			"byteLength": 5792,
			"target": 34962,
			"byteStride": 8,
			"byteOffset": 0
		},
		{
			"buffer": 0,
			"byteLength": 17376,
			"target": 34962,
			"byteStride": 12,
			"byteOffset": 5792
		},
		{
			"buffer": 0,
			"byteLength": 11584,
			"target": 34962,
			"byteStride": 16,
			"byteOffset": 23168
		}
	],
	"images": [
		{
			"uri": "Assets/Visuals/Materials/Textures/Hexagon_L_Albedo.png"
		},
		{
			"uri": "Assets/Visuals/Materials/Textures/Hexagon_L_Emissive.jpg"
		}
	],
	"materials": [
		{
			"pbrMetallicRoughness": {
				"baseColorTexture" : {
					"index" : 0,
					"texCoord" : 0
				},
				"baseColorFactor": [1, 1, 1, 1],
				"metallicFactor": 0,
				"roughnessFactor": 1
			},
			"emissiveTexture" : {
				"index" : 1,
				"texCoord" : 0
			},
			"emissiveFactor": [0.36, 0.36, 0.36],
			"doubleSided": false,
			"name": "Hexagon_L_Mat"
		},
		{
			"pbrMetallicRoughness": {
				"baseColorTexture" : {
					"index" : 0,
					"texCoord" : 0
				},
				"baseColorFactor": [1, 1, 1, 1],
				"metallicFactor": 0,
				"roughnessFactor": 1
			},
			"emissiveTexture" : {
				"index" : 1,
				"texCoord" : 0
			},
			"emissiveFactor": [0.36, 0.36, 0.36],
			"doubleSided": false,
			"name": "Hexagon_fade_L_Mat"
		}
	],
	"meshes": [
		{
			"name": "mesh_Hexagon_Floor_02_Large_Art_33748Hexagon_Floor_02_Large_Art",
			"primitives": [
				{
					"attributes": {
						"POSITION": 0,
						"NORMAL": 1,
						"TEXCOORD_0": 2,
						"TANGENT": 3
					},
					"indices": 4,
					"material": 0,
					"mode": 4
				},
				{
					"attributes": {
						"POSITION": 0,
						"NORMAL": 1,
						"TEXCOORD_0": 2,
						"TANGENT": 3
					},
					"indices": 5,
					"material": 1,
					"mode": 4
				}
			]
		}
	],
	"nodes": [
		{
			"name": "UnityGlTF_root",
			"children": [
				1
			]
		},
		{
			"name": "node_Hexagon_Floor_02_Large_Art",
			"mesh": 0,
			"matrix": [1, 0, 0, 0, 0, 1, 0, 0, 0, 0, 1, 0, 0, 0, 0, 1]
		}
	],
	"samplers": [
		{
			"magFilter": 9729,
			"minFilter": 9985,
			"wrapS": 10497,
			"wrapT": 10497
		}
	],
	"scenes": [
		{
			"name":"defaultScene",
			"nodes": [
				0
			]
		}
	],
	"scene": 0,
	"textures": [
		{
			"sampler": 0,
			"source": 0
		},
		{
			"sampler": 0,
			"source": 1
		}
	]
}