{
	"asset": {
		"generator": "Unity 2020.3.11f1",
		"extras": {
			"exporterVersion" : "2.2.1"
		},
		"version": "2.0"
	},
	"accessors": [
		{
			"bufferView": 2,
			"byteOffset": 0,
			"componentType": 5126,
			"count": 497,
			"max": [ 19.49334, 39.94555, 47.17359 ],
			"min": [ -16.28958, 29.52511, 17.32736 ],
			"type": "VEC3"
		},
		{
			"bufferView": 2,
			"byteOffset": 5964,
			"componentType": 5126,
			"count": 497,
			"max": [ 0.9797807, 1, 0.9667881 ],
			"min": [ -0.9717714, -1, -0.9656581 ],
			"type": "VEC3"
		},
		{
			"bufferView": 1,
			"byteOffset": 0,
			"componentType": 5126,
			"count": 497,
			"max": [ 0.65625, 0.9790665 ],
			"min": [ 0, 0 ],
			"type": "VEC2"
		},
		{
			"bufferView": 3,
			"byteOffset": 0,
			"componentType": 5126,
			"count": 497,
			"max": [ 1, 0, 0.9757307, 1 ],
			"min": [ -0.9656581, 0, -0.9661931, 1 ],
			"type": "VEC4"
		},
		{
			"bufferView": 0,
			"byteOffset": 0,
			"componentType": 5123,
			"count": 897,
			"max": [ 496 ],
			"min": [ 0 ],
			"type": "SCALAR"
		}
	],
	"buffers": [
		{
			"byteLength": 25650,
			"uri": "entity58734.bin"
		}
	],
	"bufferViews": [
		{
			"buffer": 0,
			"byteLength": 1794,
			"target": 34963,
			"byteOffset": 23856
		},
		{
			"buffer": 0,
			"byteLength": 3976,
			"target": 34962,
			"byteStride": 8,
			"byteOffset": 0
		},
		{
			"buffer": 0,
			"byteLength": 11928,
			"target": 34962,
			"byteStride": 12,
			"byteOffset": 3976
		},
		{
			"buffer": 0,
			"byteLength": 7952,
			"target": 34962,
			"byteStride": 16,
			"byteOffset": 15904
		}
	],
	"materials": [
		{
			"pbrMetallicRoughness": {
				"baseColorFactor": [1, 0.004716992, 0.004716992, 1],
				"metallicFactor": 0,
				"roughnessFactor": 0.5
			},
			"emissiveFactor": [0, 0, 0],
			"doubleSided": false,
			"name": "Collider_Mat"
		}
	],
	"meshes": [
		{
			"name": "mesh_Hexagon_Floor_02_collider_33730Hexagon_Floor_02_collider",
			"primitives": [
				{
					"attributes": {
						"POSITION": 0,
						"NORMAL": 1,
						"TEXCOORD_0": 2,
						"TANGENT": 3
					},
					"indices": 4,
					"material": 0,
					"mode": 4
				}
			]
		}
	],
	"nodes": [
		{
			"name": "UnityGlTF_root",
			"children": [
				1
			]
		},
		{
			"name": "node_Hexagon_Floor_02_collider",
			"mesh": 0,
			"matrix": [1, 0, 0, 0, 0, 1, 0, 0, 0, 0, 1, 0, 0, 0, 0, 1]
		}
	],
	"scenes": [
		{
			"name":"defaultScene",
			"nodes": [
				0
			]
		}
	],
	"scene": 0
}