{
	"asset": {
		"generator": "Unity 2020.3.11f1",
		"extras": {
			"exporterVersion" : "2.2.1"
		},
		"version": "2.0"
	},
	"accessors": [
		{
			"bufferView": 2,
			"byteOffset": 0,
			"componentType": 5126,
			"count": 1428,
			"max": [ 34.56832, 50.92826, 28.56255 ],
			"min": [ 2.858424, 49.82417, 5.461159 ],
			"type": "VEC3"
		},
		{
			"bufferView": 2,
			"byteOffset": 17136,
			"componentType": 5126,
			"count": 1428,
			"max": [ 0.9996573, 1, 0.9992872 ],
			"min": [ -0.9996572, -1, -0.9992872 ],
			"type": "VEC3"
		},
		{
			"bufferView": 1,
			"byteOffset": 0,
			"componentType": 5126,
			"count": 1428,
			"max": [ 0.985899, 0.991225 ],
			"min": [ 0.01660365, 0.007479671 ],
			"type": "VEC2"
		},
		{
			"bufferView": 3,
			"byteOffset": 0,
			"componentType": 5126,
			"count": 1428,
			"max": [ 0.8988066, 1, 0.999288, 1 ],
			"min": [ -0.9809008, -1, -0.9995877, 1 ],
			"type": "VEC4"
		},
		{
			"bufferView": 0,
			"byteOffset": 0,
			"componentType": 5123,
			"count": 3120,
			"max": [ 1427 ],
			"min": [ 0 ],
			"type": "SCALAR"
		}
	],
	"buffers": [
		{
			"byteLength": 74784,
			"uri": "entity34852.bin"
		}
	],
	"bufferViews": [
		{
			"buffer": 0,
			"byteLength": 6240,
			"target": 34963,
			"byteOffset": 68544
		},
		{
			"buffer": 0,
			"byteLength": 11424,
			"target": 34962,
			"byteStride": 8,
			"byteOffset": 0
		},
		{
			"buffer": 0,
			"byteLength": 34272,
			"target": 34962,
			"byteStride": 12,
			"byteOffset": 11424
		},
		{
			"buffer": 0,
			"byteLength": 22848,
			"target": 34962,
			"byteStride": 16,
			"byteOffset": 45696
		}
	],
	"images": [
		{
			"uri": "Assets/Visuals/Materials/Textures/Hexagon_L_Albedo.png"
		},
		{
			"uri": "Assets/Visuals/Materials/Textures/Hexagon_L_Emissive.jpg"
		}
	],
	"materials": [
		{
			"pbrMetallicRoughness": {
				"baseColorTexture" : {
					"index" : 0,
					"texCoord" : 0
				},
				"baseColorFactor": [1, 1, 1, 1],
				"metallicFactor": 0,
				"roughnessFactor": 1
			},
			"emissiveTexture" : {
				"index" : 1,
				"texCoord" : 0
			},
			"emissiveFactor": [0.36, 0.36, 0.36],
			"doubleSided": false,
			"name": "Hexagon_L_Mat"
		}
	],
	"meshes": [
		{
			"name": "mesh_Hexagon_Floor_04_Large_Art_22136Hexagon_Floor_04_Large_Art",
			"primitives": [
				{
					"attributes": {
						"POSITION": 0,
						"NORMAL": 1,
						"TEXCOORD_0": 2,
						"TANGENT": 3
					},
					"indices": 4,
					"material": 0,
					"mode": 4
				}
			]
		}
	],
	"nodes": [
		{
			"name": "UnityGlTF_root",
			"children": [
				1
			]
		},
		{
			"name": "node_Hexagon_Floor_04_Large_Art",
			"mesh": 0,
			"matrix": [1, 0, 0, 0, 0, 1, 0, 0, 0, 0, 1, 0, 0, 0, 0, 1]
		}
	],
	"samplers": [
		{
			"magFilter": 9729,
			"minFilter": 9985,
			"wrapS": 10497,
			"wrapT": 10497
		}
	],
	"scenes": [
		{
			"name":"defaultScene",
			"nodes": [
				0
			]
		}
	],
	"scene": 0,
	"textures": [
		{
			"sampler": 0,
			"source": 0
		},
		{
			"sampler": 0,
			"source": 1
		}
	]
}