{
	"asset": {
		"generator": "Unity 2020.3.11f1",
		"extras": {
			"exporterVersion" : "2.2.1"
		},
		"version": "2.0"
	},
	"accessors": [
		{
			"bufferView": 2,
			"byteOffset": 0,
			"componentType": 5126,
			"count": 101,
			"max": [ 0.2691556, 2.623277, -0.1705128 ],
			"min": [ -0.2691554, 2.084966, -0.2488985 ],
			"type": "VEC3"
		},
		{
			"bufferView": 2,
			"byteOffset": 1212,
			"componentType": 5126,
			"count": 101,
			"max": [ 0.878484, 0.8784967, -0.4777483 ],
			"min": [ -0.8784967, -0.878484, -1 ],
			"type": "VEC3"
		},
		{
			"bufferView": 1,
			"byteOffset": 0,
			"componentType": 5126,
			"count": 101,
			"max": [ 0.3142269, 0.8114785 ],
			"min": [ 0.122551, 0.6198026 ],
			"type": "VEC2"
		},
		{
			"bufferView": 3,
			"byteOffset": 0,
			"componentType": 5126,
			"count": 101,
			"max": [ -0.4777484, 0.01449809, 0.8784967, 1 ],
			"min": [ -1, -0.01449825, -0.878484, 1 ],
			"type": "VEC4"
		},
		{
			"bufferView": 0,
			"byteOffset": 0,
			"componentType": 5123,
			"count": 540,
			"max": [ 100 ],
			"min": [ 0 ],
			"type": "SCALAR"
		}
	],
	"buffers": [
		{
			"byteLength": 5928,
			"uri": "entity36308.bin"
		}
	],
	"bufferViews": [
		{
			"buffer": 0,
			"byteLength": 1080,
			"target": 34963,
			"byteOffset": 4848
		},
		{
			"buffer": 0,
			"byteLength": 808,
			"target": 34962,
			"byteStride": 8,
			"byteOffset": 0
		},
		{
			"buffer": 0,
			"byteLength": 2424,
			"target": 34962,
			"byteStride": 12,
			"byteOffset": 808
		},
		{
			"buffer": 0,
			"byteLength": 1616,
			"target": 34962,
			"byteStride": 16,
			"byteOffset": 3232
		}
	],
	"images": [
		{
			"uri": "Assets/Visuals/Materials/Textures/Teleport_Albedo.png"
		},
		{
			"uri": "Assets/Visuals/Materials/Textures/Teleport_Emissive.jpg"
		}
	],
	"materials": [
		{
			"pbrMetallicRoughness": {
				"baseColorTexture" : {
					"index" : 0,
					"texCoord" : 0
				},
				"baseColorFactor": [1, 1, 1, 1],
				"metallicFactor": 0,
				"roughnessFactor": 1
			},
			"emissiveTexture" : {
				"index" : 1,
				"texCoord" : 0
			},
			"emissiveFactor": [1, 1, 1],
			"doubleSided": false,
			"name": "Teleporter_Mat"
		}
	],
	"meshes": [
		{
			"name": "mesh_Teleporter_Button.001_22610Teleporter_Button.001",
			"primitives": [
				{
					"attributes": {
						"POSITION": 0,
						"NORMAL": 1,
						"TEXCOORD_0": 2,
						"TANGENT": 3
					},
					"indices": 4,
					"material": 0,
					"mode": 4
				}
			]
		}
	],
	"nodes": [
		{
			"name": "UnityGlTF_root",
			"children": [
				1
			]
		},
		{
			"name": "node_Teleporter_Button.001",
			"mesh": 0,
			"matrix": [1, 0, 0, 0, 0, 1, 0, 0, 0, 0, 1, 0, 0, 0, 0, 1]
		}
	],
	"samplers": [
		{
			"magFilter": 9729,
			"minFilter": 9985,
			"wrapS": 10497,
			"wrapT": 10497
		}
	],
	"scenes": [
		{
			"name":"defaultScene",
			"nodes": [
				0
			]
		}
	],
	"scene": 0,
	"textures": [
		{
			"sampler": 0,
			"source": 0
		},
		{
			"sampler": 0,
			"source": 1
		}
	]
}