{
	"asset": {
		"generator": "Unity 2020.3.11f1",
		"extras": {
			"exporterVersion" : "2.2.1"
		},
		"version": "2.0"
	},
	"accessors": [
		{
			"bufferView": 2,
			"byteOffset": 0,
			"componentType": 5126,
			"count": 2547,
			"max": [ 2.177778, 6.266137, 2.355942 ],
			"min": [ -2.56968, 0, -2.314607 ],
			"type": "VEC3"
		},
		{
			"bufferView": 2,
			"byteOffset": 30564,
			"componentType": 5126,
			"count": 2547,
			"max": [ 0.9999275, 0.9957749, 0.9997595 ],
			"min": [ -0.9999051, -0.9936792, -0.999929 ],
			"type": "VEC3"
		},
		{
			"bufferView": 3,
			"byteOffset": 0,
			"componentType": 5126,
			"count": 2547,
			"max": [ 1, 1, 1, 1 ],
			"min": [ 0, 0, 0, 0 ],
			"type": "VEC4"
		},
		{
			"bufferView": 1,
			"byteOffset": 0,
			"componentType": 5126,
			"count": 2547,
			"max": [ 0.5640517, 0.6848007 ],
			"min": [ 0.06390126, 0.1725813 ],
			"type": "VEC2"
		},
		{
			"bufferView": 3,
			"byteOffset": 40752,
			"componentType": 5126,
			"count": 2547,
			"max": [ 0.9960368, 0.9998801, 0.9998001, -1 ],
			"min": [ -0.9875045, -0.9981441, -0.9879605, -1 ],
			"type": "VEC4"
		},
		{
			"bufferView": 0,
			"byteOffset": 0,
			"componentType": 5123,
			"count": 8148,
			"max": [ 2546 ],
			"min": [ 0 ],
			"type": "SCALAR"
		}
	],
	"buffers": [
		{
			"byteLength": 179304,
			"uri": "entity37844.bin"
		}
	],
	"bufferViews": [
		{
			"buffer": 0,
			"byteLength": 16296,
			"target": 34963,
			"byteOffset": 163008
		},
		{
			"buffer": 0,
			"byteLength": 20376,
			"target": 34962,
			"byteStride": 8,
			"byteOffset": 0
		},
		{
			"buffer": 0,
			"byteLength": 61128,
			"target": 34962,
			"byteStride": 12,
			"byteOffset": 20376
		},
		{
			"buffer": 0,
			"byteLength": 81504,
			"target": 34962,
			"byteStride": 16,
			"byteOffset": 81504
		}
	],
	"images": [
		{
			"uri": "Assets/Visuals/Materials/Textures/Trunk01_Albedo.png"
		}
	],
	"materials": [
		{
			"pbrMetallicRoughness": {
				"baseColorTexture" : {
					"index" : 0,
					"texCoord" : 0
				},
				"baseColorFactor": [1, 1, 1, 1],
				"metallicFactor": 0,
				"roughnessFactor": 1
			},
			"emissiveFactor": [0, 0, 0],
			"doubleSided": false,
			"name": "Trunk01_Mat"
		}
	],
	"meshes": [
		{
			"name": "mesh_tree_22730tree",
			"primitives": [
				{
					"attributes": {
						"POSITION": 0,
						"NORMAL": 1,
						"COLOR_0": 2,
						"TEXCOORD_0": 3,
						"TANGENT": 4
					},
					"indices": 5,
					"material": 0,
					"mode": 4
				}
			]
		}
	],
	"nodes": [
		{
			"name": "UnityGlTF_root",
			"children": [
				1
			]
		},
		{
			"name": "node_tree",
			"mesh": 0,
			"matrix": [1, 0, 0, 0, 0, 1, 0, 0, 0, 0, 1, 0, 0, 0, 0, 1]
		}
	],
	"samplers": [
		{
			"magFilter": 9729,
			"minFilter": 9985,
			"wrapS": 10497,
			"wrapT": 10497
		}
	],
	"scenes": [
		{
			"name":"defaultScene",
			"nodes": [
				0
			]
		}
	],
	"scene": 0,
	"textures": [
		{
			"sampler": 0,
			"source": 0
		}
	]
}